<mxfile host="app.diagrams.net" modified="2021-06-07T05:02:37.433Z" agent="5.0 (Windows NT 10.0; Win64; x64) AppleWebKit/537.36 (KHTML, like Gecko) Chrome/91.0.4472.77 Safari/537.36" etag="txB42CAr9Pm2nZQEEIZD" version="14.7.6" type="github">
  <diagram id="5fxVy6RvR-oE0-qvCV38" name="文件事件处理器">
    <mxGraphModel dx="1422" dy="794" grid="1" gridSize="10" guides="1" tooltips="1" connect="1" arrows="1" fold="1" page="1" pageScale="1" pageWidth="827" pageHeight="1169" math="0" shadow="0">
      <root>
        <mxCell id="0" />
        <mxCell id="1" parent="0" />
        <mxCell id="7R1-BjiTBL7Nk3DXKml1-1" value="" style="shape=image;verticalLabelPosition=bottom;labelBackgroundColor=#ffffff;verticalAlign=top;aspect=fixed;imageAspect=0;image=data:image/png,iVBORw0KGgoAAAANSUhEUgAAAs4AAAFxCAYAAABjmC4RAAAgAElEQVR4AeydCfxV0/r/LxGZh5IUJUOITHGLzEIlIiWkZCiVZCgkMiv8k7EQMg+RokyZIkKUzITLFakMSWbuXf/Xe/3uOq999tn7nL3P2cPa5zzP67W/3z2svYbPWmftz372s57nH0pEEBAEBAFBQBAQBAQBQUAQEARKIvCPkikkgSAgCAgCgoAgIAgIAoKAICAIKCHOMggEAUFAEBAEBAFBQBAQBASBAAgIcQ4AkiQRBAQBQUAQEAQEAUFAEBAEhDjLGBAEBAFBQBAQBAQBQUAQEAQCICDEOQBIkkQQEAQEAUFAEBAEBAFBQBAQ4ixjQBAQBAQBQUAQEAQEAUFAEAiAgBDnACBJEkFAEBAEBAFBIAkE/vvf/6qxY8eqUaNG5W2cKybLli3LSy/3C37OMZDU+JkyZUqxYVoV14Q4V0U3SiMEAUFAEBAEqgGBL7/8Uv3jH/9QG220kWrevHlua9euXdHmff3117m0zvvMvtwv+BUbQFGMn/XWW081bdq0WDFVcU2Ic1V0ozRCEBAEBAFBoBoQ+Pe//62J82uvvVYNzZE21BAC/+///T+18cYbV32LhThXfRdLAwUBQUAQEASygoDR/M2bNy8rVZZ6CgIaASHOMhAEAUFAEBAEBAFBQBAQBASBAAgIcQ4AkiQRBAQBQUAQEAQEAUFAEBAEhDjLGBAEBAFBQBAQBAQBQUAQEAQCICDEOQBIkkQQEAQEAUFAEBAEBAE3AgsXLlQ//PCD+3Sg46+++soz3YIFC9TSpUs9r/md/OOPP/wuqQ8//ND3WhwXfv7557xsf/3119zxn3/+qX788cfcMTufffZZ3rHtB+PHj1elvLfY3oYg9ZPFgUFQkjSCgCAgCAgCgoAgEBgB/PnWq1dP3XrrrQX34Kv6iy++KDhvTmy//faqa9eu6j//+Y85pf/fe++9Ok8IWlA59dRT1Zlnnqm8CPTee++tDj74YMWCzDDy3XffqSVLlvjeMnfuXM/ybrvtNrX//vuryy67TG+77babOuqoo3Q+kOoGDRqo8847T18799xz1UorreSJn2/BciERBIQ4JwKzFCIICAKCgCAgCFQXAsuXL1dsaEvd27Rp07RbvUWLFhVcGzZsmGrcuLHy0iy/9957+r5rr71WgwXBNgT6oYceUiuuuGLuOAia22yzjYKIEyDGLQceeKA64IAD1C+//OK+pP7666+Ccj744APVvn17NXv2bE1yhw8frkaMGKHOOeccTc7ZZ2vYsKE69NBDC/K8//771dZbb60gyWyQ9n79+ul0tBH/3W+88Ya+9s033+hjyhKxCwEhznb1h9RGEBAEBAFBQBDIBAKff/65OvLIIzVpPOuss5Rz6969uyZ+aHyd54cOHZo7fvjhhwvaCalu1qyZJttc7NKli/rnP/+pjx999FFVp06dgnv8Thjy+cQTT3gmgdyijfaSb7/9VvXs2VOdf/756pBDDtH+iS+44AKFJvi+++7Tbfv+++/1raNHj1a77757LpvNNttMXXLJJbljswNxbtmypTnUbYNoI4Y4v//++/r4p59+0mV88sknufSyYwcCQpzt6AephSAgCAgCgoAgoDWd2Lb+/vvvmULjmmuuUW+++ab66KOP9DZhwgRN/NCgmnOXXnqpglCjpfYSTDggzZg0IH///bdae+211ciRI/Xx1KlT84gzWuE77rjDKyt97p577lH169fXmHIC7TX1NAIp9yPOJg3/uQfNtRHILNphQ5yvvvrqAuI8btw4kzz3H+LcokULBSln69Chgzr77LP1dfqbPGfMmKGwD58/f74+RsstYhcCQpzt6g+pjSAgCAgCgkANI5DVyIF77bWX6tSpk9bGopFFMwsRxMaZYzYWjm277baephF0+UsvvaTQ1kKIkVmzZuk8MIVAq3vCCSeoFVZYQe9z3K1bN339gQce8BwxRxxxhMKOmLqw7bjjjtrU46233tLpIc4nn3yy573Ok1ER5zvvvFObcVxxxRWKDSwg2GPHjlWLFy/WLw2Udf3116urrrpK1a1bV4nG2dkTduwLcbajH6QWgoAgIAgIAoKAyipx3meffdSQIUNyPfjss89qUuv0FHHssceqfffdN5fGvbPnnntqYolJBnLxxRdrDTV5sEGQsXE2x+a/l3YejxVrrLGGcmpsKdssxiN/iDOL9bBzvvnmm3PmIe56+RHn008/XRPy/fbbTzVp0iRH0Nddd11NiN35sLgR0w8j2F3fcsstuk2TJk1SeA0ZOHCgeuSRRxTa948//lhr3U16+W8HAkKc7egHqYUgIAgIAoKAIJBZ4ty2bVvVuXNnvTgOu11IMhpnTBHMorlWrVqpXr16efYyxBEzDrSskG5kjz32UK+99louvdtUI3fBYwfyCYGFgCL8x+wDra8RY6oBQcVEZIstttAL/8x1898QZ+yOsV02ZhRhTTVMfuY/CwQbNWqkNejm3Msvv6x4CUF4IeBl4sUXXzSX5b8FCAhxtqATpAqCgCAgCAgCggAIZE3jbIgpi9qwSTbipXGGBEOk3RpijjHzwPZ5lVVW0SYb7LMozyl+xBmPHm4hv5NOOkm98847+hLkGDMPFgwaMcSZY+zKIdZrrrmm9hWN+7o+ffqoM844Q+F9A1dxmIpgbjJmzBj9UmCIs9fiwBtuuMEUo+bMmaO127TdmI2wCBJ75+22206xz3nKO+6443JpBg0apL1znHjiiQUePnKZW7TDFwDGb7WLEOdq72FpnyAgCAgCgkBmEMgaccbEoW/fvjmtstEue2mc8c2MFvrBBx/MI9nY+BqTCkOcOcZrh1O8iDM2wocffnhOs0x6FgF27NhRE1YW7iEsItx1112d2Wky61wcOHHiRE2u3X6djcbZ3IwGmHZAoDG1wNYa22z22SDZ2Cj7CTbcvXv31tpkpys8XgBwUefUivvlYeN5iRxoY69InQQBQUAQEAQEgSpGIGvE2a8rvDTOEF8IJwvedtppJ/XKK69ou+Knnnoqlw3EmXSYdBAMBNMIs+EeDq2xOeY/6bBbxqOHETS4LABEa4z9MoL/ZdI7BdMSJ3HmmpffZDdxpm2rrrqqjjwIucef884776yJPse4nHvmmWecReX20aQfdNBB6rDDDvP0LoJGnEWMEGgIOuYcWREhzlnpKamnICAICAKCgCBQJQhkiTjjnxmvFMb8wPn/6KOP1iQZUwdz3njBwBwBLTHBP0xwE9N9RuNsjp3/vTTOzuvs48oNomsEwoz9NPl++eWX5rT+D4GlfqXETZwxLXFqpd3u6Lzc7WHSgns8Xhhwt4c7Ojxr4LYPmTx5siLAC+epJyYhvGTgt7p169bq+eefL1XN1K8LcU69C6qzAs8995z+Ebz77ru+DeQTDm+vfluxe8lU7rcXPz5RiggCgoAg4IcAhKx58+Zq3rx5fkkycb6Yxplogn5SKXHGD7Kxu6YMCOlqq62mn4vuMlmEN3jwYPfpgmOIMxH/XnjhBa0Fx7UeHjF+++03vUGAWRzJMaYXeO8wJiJkBunlBQPzEfqWa2y4ymPDNhy3fRtttFHuGi8W+KDGrtqQ64KKWXZCiLNlHVIt1WFgsfjA/ebrbB+LClhE4LcVu5d85H478WP1tPuzoLPfZV8QEAQEgawhwDMNc4nTTjstb4P4oTHt379/7jyR+jhHQBQ/WWmllfTiQK/rjz32WF4AFK807nMsSKRMFEruRYRocqlfMWHRILbZuLa77LLLNDnGxGTAgAHq8ssv18FZWIjYtGlTvU+wFjbItFkEiRcOBJtovGQYgUxjH47cfvvtaocddjCXtC9nTDayJEKcs9RbGaprrQysDHVJYlX98MMPtZ/OxAqUggQBQUAQiBkB7Iid3jRMcV4aZ7TBxxxzjG8AFDTFkFw/92uE6MaPc1CBsKLhvemmm7SrOYgy5hJohhHI9Ntvv+2Z3dNPP60I6oJNNWHFv/rqK890nHSbavglFOLsh0y2zotXjYT7S4hzwoBLcYKAICAICAKJIICGFa0uBBgvFpDgMIvbILTcg0mjl2AiAZENIigqMIMwUQKXLl2qF/E1bNhQ1atXT5tMHn/88frcqFGj9JdaE7EPgo6mGu8Y2FWXEi/izH28VDiFdBtvvHHO5huNMtp6BFMN6mbswVnU6Azz7czH1v1a4TdCnBMegbUysBKGVYoTBAQBQUAQSBkBvGXceOONqkOHDpoAY7MbRpYsWaLvc3rZcN4PuYRYuxcUOtPg6o3nLAsXyc8tEPsnnnhCDR06VNsiY0dMnmYj+qEhvEQfdArl4m4Oswrsjs3Wo0cPrdE2x5SPyQl+pJ0CQTfBTTiPuQdpEXD75z//mUsOiSffLMn48eP1osYs1bmcugpxLge1Cu4R4lwBeHKrICAICAKCgPUIoHHG7rfUQnZ3QyC6eOMwphTu6/g3xk7aufjPmQbSjFbX7f/ZmcZr/7vvvtMa5ieffLIoKedeNNi0izJKbYTQdgqLBI0GnPNOm2sCyDiDh7hJuzMf2U8XASHOCeMvxDlhwKU4QUAQEAQEAUFAEBAEIkJAiHNEQAbNJmvEGZc7zhClQdvJGzyf7bwEd0vvvfee16VA51ik4Yy2FOgmSSQICAKCgCAgCAgCgkCFCAhxrhDAsLdnzQYItzospMANUBh55513tM0YC0TcAhlfe+21FbZk5cjrr7+u1llnHb06upz75R5BQBAQBGxFAHMDXKAZV2a21lPqJQjUKgJCnGu15wO0mwUSLO4g2pOXTRm2Wixe8Fqo8fHHH2vi7KetPuecc3S+pho333xzXshUc56V0V6yyy675C2yMGl+/PFH7fDeHMt/QUAQEASyhECWIgdmCVepqyAQFQJCnKNCMuP5DB8+XA0cOFCNGDEitxGOdP3111enn366PnfsscfmrpGue/fumrxOmzatoPWffvppHnHGJ2bPnj0VhBl3OwR3QeNs9jfbbDPtOsi9KATn8JR1ySWX5G3Dhg3Tq6bd5/fee2/t55OQprYJPkPx4ykiCAgCgoAfAkKc/ZCR84KAHQgIcbajH6yrBeFeMaeYOXNmrm6sCCY6lJeGOZfofzt8asS9DxpnoiuxCnnx4sXK7WbopZde0s7lvVZBkwcmGW4y7S7LHKMhJyzqcccdp2wMbY2rIYkcaHpL/gsCgoAXAkKcvVCRc4KAPQgIcbanL6ypyffff6823XRTT+1ov379VJcuXTwX50GMcSWEVnnQoEGaOA8ePFi1bdtW9enTR7ePe9ESGznllFO0k3cv4kzUplatWpmkRf9jF4iPz+nTpxdNl+ZFIc5poi9lCwLZQECIczb6SWpZiACmkozfahchztXewyHbBwHdf//9VbNmzRSeMYj6ZDa0x/jQ3G+//VSLFi3U6NGj1aJFizxLcGqcnQkIfdq4cWN9Cj+VW2yxhf6hoS2+6667nEl1mNQvv/xSLwKEFON03m+DYDu143kZWXIgxNmSjpBqCAIWIyDE2eLOkaoVRSBrXsOKNqbIRSHORcCptUvffvut6ty5syJiEUT0iCOOUFdeeWXeRuSjjz76SNsdE/q0Tp06qmPHjgXu5ZzEGaf2999/vw5dCjnGPplwpPzHrpr9Y445RmuocXDvlg8++EDNnj1bu7fDxZ1zYxHivvvuq9Zdd11N5N332nQsxNmm3pC6CAJ2IiDE2c5+kVqVRkCIc2mMJEUVITB37lzVq1cv7QaJZuG1gh8BPped2+GHH65Y6Idgn7zbbrvpSE1urxtO4oxnDAj3jBkz1KxZs7TNM6FIuZ9j5xbUv7OxsyZkKYsMs+DXWYhzFf1gpCmCQEwICHGOCVjJNnYEhDjHDnFtFmCjDdDjjz+u7YOd5HfXXXfVRBo3ce5t8uTJRTtv+fLlCq8WLA7ElR3aZmdoUbTaeORwniNDzESCypFHHqnwUgEZdws+pG0k0kKc3T0lx4KAIOBGAEVF8+bNFQu0RQSBLCEgxDlLvZWhuto4sLwIK8QZu2K3jBs3TvXv3999Wh9jToH9c926dbWbOuNVw5kYm2iuY2LhFJz9t2vXTpttcJ6HB4FO3n77bc9tjz320CYa7uvYOTds2FChGXe+CDjLSmtfiHNayEu5goAgIAgIAnEjYCO/iaPNYuMcB6pF8szKwII4oxl2+nVmH7/LeM3AHhrBk4YRtLxokvFsYUw1ILacww0b92La0bJlS73PMfbRO++8szr11FM12cWVHEQerfXVV1+tJk6cqCZNmlSwYUrSpk2bgvPOtEHd2Jn6x/0fk5UFCxbEXYzkLwgIAoKAICAIJI5AVvhNpcAIca4UwZD3Z2Vg+Wmcnc19//331XrrrefpAs4QZ2fkQIgs2mDj/QKN8JZbbqmJuDPfIPt49+jatWuQpJJGEBAEBAFBQBAQBGJGICv8plIYhDhXimDI+20cWAQlcUcFxF9z69at9SJBo3U+77zz8jTQaInxzzx06NACFLyI81VXXaWJMq7nkHvvvVdHJjTa64JMipwQ4lwEHLkkCAgCgoAgIAgkjMD48eO1yWXCxSZenBDnhCG3kTh7QYCnC7TBTltkFgleeOGF2v7Y6x7nOS/ivHDhQu2HGZJ+4IEH5sJ5e9lYO/Py2hfi7IWKnBMEBAFBQBAQBASBOBEQ4hwnuh55206csS2+5557dHRAtyYYLxiPPPKIWnPNNdXpp5/u6QXDaJPffPNN7VUDH85uIRz25ptvrjXVmHpssMEGavjw4eqnn35yJ807dnrh6NChg7adzksgB4KAICAICAKCgCAgCMSIgBDnGMH1ytp24kwwEbxhYIvctGlTtcMOO2jvFQRDwWfyxRdfrDDZIA0aaLc8+uijilDZq6++urZ/Ntf//vtv9fzzz6vDDjtMLwLEawaCFhrtM/kdcMABJrnnfxYaEsKbqIYEXyF4ioggIAgIAoKAICAICAJJISDEOSmk/1eO7TZA8+fPVw8//HDJePPYQE+ZMsUTPRYE4jkDH8uQ3QsuuED7XB45cqTCx7KXjB071tNW2ist5B3vHM6Fh17p5JwgIAgIAllDANM1TN1w0SkiCAgC9iEgxNm+PqmqGsXhSxnttYggIAgIAtWIgEQOrMZelTZVEwJCnKupN6UtViNApMMxY8ZYXUepnCAgCKSLgBDndPGX0gWBUggIcS6FkFwXBCJCQCIHRgSkZCMIVDECQpyruHOlaVWBgBDnquhGaUQWEBDinIVekjoKAukiIMQ5Xfyl9PIR+PHHH0uujyo/d3vuFOJsT19ITaocASHOVd7B0jxBIAIEwhLnZ555Ro0aNUo2wSC2MfDhhx8GGtm2ew0L1IgAiYQ4BwBJkggCUSAgxDkKFCUPQaC6EQhLnNu0aaPWXntt1bx5c9kEg8jHwCqrrKKGDBkS6EcnxDkQTJJIEBAEgiIgxDkoUpJOEKhdBMISZ5lXanesJNHyMONLiHMSPVKDZdSKDVANdm3JJoeZgEpmJgkEAUGgKhEgOBTa43nz5gVqn8wrgWCSRGUiEGZ8CXEuE2S5rTgCtTKwiqNQm1fDTEC1iZC0WhAQBMIiIPNKWMQkfRgEwoyvWuE3YuMcZgRFkLZWBlYEUFVdFiywWLBgQdW1SxokCAgC6SEQhtikV0spOasIhBlftcJvhDgnPJprZWAlDKsUJwgIAoJATSIQhtjUJEDS6IoQCDO+aoXfCHGuaEiFv7lWBlZ4ZOQOQUAQEAQEgbAIhCE2YfOW9IJAmPE1fvx41a5du6oHTYhzwl0sxDlhwKU4QUAQEASqGIEwxKaKYZCmxYSAjK9CYIU4F2IS6xkhzrHCK5kLAoKAIFBTCAixqanuTryxMr4KIRfiXIhJrGeEOMcKr2QuCAgCgkBNISDEpqa6O/HGyvgqhFyIcyEmsZ6pFRugWEGUzAUBQUAQqFIE/vrrL/XZZ5+p33//PVALhdgEgkkSlYmAjK9C4IQ4F2IiZwQBQUAQEAQEgVQQkMiBqcAuhfogIMS5EBghzoWYyBlBIBYEevfurcaMGRNL3pKpICAIVAcCaRLnX3/9VY0bN06h9a5UZs6cqX755ZdKs8m7/+OPP1aLFy/OOxfmYNmyZerNN98Mc0te2j/++CPv2Bx88803aunSpeYwkf8///xzXjn0nZE///xTEaXYKXzFKEeEOBeiJsS5EBM5IwjEgoBMQLHAKpkKAlWFQJrEeejQoeof//iHOvnkkyvC9O+//1aNGjVSm2++uYKsBpWpU6cqSJ+f3HjjjapevXrqgw8+8EtS9DwE17Tv+++/V5MmTQpM7r/99lvVokUL9dprrxWUMWPGDLX++uur2267reBaqRMExvITcHzjjTc8L1PW/vvvry677DK97bbbbuqoo47SaSHVDRo0UOedd56+du6556qVVlpJ3XrrrZ55FTspz61CdIQ4F2IiZwSBWBCQCSgWWCVTQaCqEEiLOM+aNUutvPLK6pprrlEdO3ZUb731Vtm4PvbYY5qgHn300erdd98NnM8dd9yhWrVqpcDAS26++WbVtGnTvEunnXaaorwgAlmGOD/yyCM6+ZVXXqlWW201rWUvdf/EiRP1vXfeeWdB0ldffVVfe/bZZwuuccJLU83LyUMPPaS6du2qDjvsMDVixAi90R6ILsfdu3fXLwr0jVvuv/9+tfXWWytIMtvBBx+s+vXrp5P95z//0fWBdHPNvDDMnj3bnU3J4zDPLbTcfn1XsqAMJRDinKHOkqpmG4EwE1C2Wyq1FwQEgXIRSIM4z58/X2244YYK4oq8//77WmM8efLkspqBJhTyjcZ0wIABgfOA8K2zzjrq+OOPV//973/VqaeeqjdDKjt37qzWXnvtHMkcNmyYOuCAAzTx/O2330qWgzmFkzhzQ/v27VWHDh30vU8++aQu1ysjiO6uu+7qdUm/ZJDv8uXLPa9D+AcOHKguueQS3T5eKCDHEHe0xIMGDcrdt+aaa6pnnnlGH9999906vVe+EOeWLVvm7uvSpYvGhROGONOPyE8//aTb/cknn+TSB90J89yqFa9hQpyDjh5JJwhUiECYCajCouR2QUAQyCgCSRPnRYsWqS233FI98MADeYi98MILao011tBk74cffsi7VuzgvvvuU6ussooyJG3atGmaGEKEg8iJJ56oIGBeglcqp8YZ8mnKMenBD00rmm73huYWgotW3Vx74okn1PTp09U999yjVlxxRXX22WebrPL+Y3bCfUbY/+KLL/ThvHnzdL5eBNekN/95MUB7beSYY47JI85rrbVWHnFu2LChSZr3H+KM6QgmJGyQf1N3PLLQTkxIFi5cqHgx4rgcE5cwzy0hznldJAeCgCBQKQJhJqBKy5L7BQFBIJsIJEmcIZ1oLadMmVIA1iuvvKIwPcAcoE6dOmrPPfdUV1xxhXrvvfcK0poT3333nbatveGGG8wp/X/vvfdWxx13nAqiFXbeiOb0lFNOUZgvoHV2apyHDBmidt55Z3Xsscc6b1HU4ayzzlLYQ990001529VXX60JJCYN7mvmGO2w286aNmPGcvrpp2tN8eDBg3U+mFgghjjzElJKoiLOmIxAqukTtm233VabnIwdO1YvoGzWrJkm+tdff7266qqrVN26dQteMkrVlethnltCnIMgKmlCI1ArNkDYVfG5CS8SfOJiwmPy5FPXXnvtpe2x0Czwg3788ccLVgCHBjYDN4SZgDLQHKmiICAIxIDA119/rZo3b67JWJDsy51XXn/9dbXNNtsoCOgFF1ygLr/88tzGgjMWu7HgDO3lqFGjFCYEaC1XWGEFdddddxVUDZILkezfv7/WbGK/a+Tzzz9X2223ndYWoyktpn2eM2eONjUw9zr/uzXOXMObBITWbUfMs5Y2OsWYamA24ZSnnnpKPfroo85TefsXX3yxOvLII3PnXnrpJY0FXj4QQ5x5pp1wwgna1CWX2LXjRZxbt26tCTkadAgu5hvsH3LIIZocu7LQh/fee686//zzc5dYhHnLLbdorTmLHhcsWKDNQ7DnBm/qiulMWAkzvoQ4h0VX0gdCoJoH1pIlS9R1112n2rVrp9/OmWR5I0ZT0bNnTz2hMkkzafXq1Uvtu+++qnHjxnoCQqMBqWaC/uqrrwJhmbVEYSagrLVN6isICALpIBB2XoE8Mc+iAWbORgsMseU85JeNc2afVkFOcQOHKYDfQjwUJCxQM67sqBck0gjKFBbC8VxAi43HB0gygjnHRRddpAn8qquuqnr06KFYyMf955xzTs6mmcVymEwYm2f+kyfPmQsvvNAUlft/0kknqf322099+umn+pwhzmhjeUFBMLdYb731tFkKOHgJCxadZhporjfddNNcUkOcMdWA8PI8QyvtRVQNccZ++Z133lHlmmrkCv/fDvjiyWT06NG5Sy+//LLaZ5999DEvQDyLX3zxxdz1IDthxlc18xsnVmLj7EQjgf1qHFh8xmKxA+5u0EpAinkbxrYqiPBpDe1E37599QSGnRlv2m5tQZC8bE6D2yG0ACKCgCAgCESFQBhiQ5m33367JmzYNGNrC3lmw70ZZiIIWmNIsjFfYLEfi8/8TC0gwShEnESRhW/M5U67XzSfaLaxgYZAb7LJJurLL7/ULuswG4HEch6NLkJ5aEoh8V7CV01D1L2uY5sNiUWjixjijIYdYgs532mnnfQCRDDwEuyl+VqK+YcRNMJgZMRJnDnHYj/aAS4ILwY8I9EQ82JwxBFHaMURZiaHHnpono2ze3Fg/fr1TTH6Py8b9AX9A0lnY5Ek9s5o9dnnXJ8+ffTLkUlDnSgLrbgfnnkF/e8gzPiqRn7jhYkQZy9UYjxXTQMLFze8LfPpDvsqbK4qdXjP57aHH35Y21Ux8aDB+Ne//hVjj0jWgoAgIAhkF4EwxMbZSogtnjTQpLLhrcJ4l0CJgbcJlB9saG0hj26SipYTrxnY0bqFayy4c4ox0UCBMHz48JzW16RBCyTMJxAAACAASURBVMy8b7xBcB7iRxsNATT/IY6YNaCFLiaYBqKVRgxxxnwBbxyQyWI229yD1ht3cyiEDOFEY82iQiNu4sxzbIcddtDKIJPG/DcaZ3OMRpivr5hZsEGsMT1hH+8iuMsrJvQJwbXQJjufv9hp8/z0cp9XLD/3tTDjq5r4jRsH57EQZycaCexXy8DCkTqrf5lAILpmQowSwqefflrb4DGRMMnHUUaU9ZW8BAFBQBBIGoEwxMZZN9afON2ZYTZniC4L8iBdRjp16qQwe3AKXikgv3hqwEYYjxUQTL+NRXcQc2eEO2d+7HsRZ0w4jMbYnR7iXyoaKwoeiOxHH32kNb8Qc4gz2nbaj0cKP+EahBnBFARPIyyaXH311fO072iBydepXceTBUTdLW7ijGkj2m/MRNjwZIIZB/vXXnutfoFx52GOKe+ggw7StuXOss112r7jjjvqvsREg5eZsBJmfGGDTnuqXYQ4J9zDWSfO/PD45ISWmU9XxSbBKKDlrXnkyJHaZppJF7MOEUFAEBAEBIH/QyAMsXFiVow44z/ZTZzRQjvF6aIOkw4WDLIozWvDLIRIdpBLvF34iRdxZmEeBNlomp3/IZmUXUww+cMkAhMVp8YZTS2EfPvtt1fOtjjzYvG6IdYQZnxTY+pgAo2YtEQTpG34Sy4lbuKMeYrRZHOv0x0d572esSiReMnBzAQTG+qIZ40JEybo4vG/jfkj5zGFgcxSP2O28vzzz5eqZu56ueMrl0EV7ghxTrhTs0ycsQFjomECRBucpDAx4b8Tf6PGd2aS5UtZgoAgIAjYiEC5xKZS4hwGC0g3nkJmzpxZ9DY3cUZrC3EupnH2I85owTGDQONqvF84iTMVwX0ci/zIH420UyCs7vDamF9A1s1iQ5MebS7E1EvDbNKY/xBnXh4wj8HeG409ZWHPzYaNMzbR7POc3WqrrfTCTHM/pJeFmJB4MGWhIhseUNiwM+eL8EYbbZS7dvjhhytspTE7MeTa5Ffqf7njq1S+Wb4uxDnh3ssqceaTD6SVH6p70kgKQurAxMWEwIQqIggIAoJArSNQLrHB/A0PFSxaZsMzhSFVbo0z9s2QtVLC4kLcizoXCWJucOCBB/pqdZ15Ookzn/3xChFW44xmmOcERBb7a7xJGHETZ85DmHG9x0JGCKZfWGq0vJBVbMHdaSC6lIfnET/h6ykmIpge7rHHHurNN9/UmmZstVk0yJdVNhZOQnDNMf+dGmLz7OPFB7tmI/SP+SqAdh0MjGCDzgtEOVLu+CqnrKzcI8Q54Z7Kog0Q/iH5EUKcIa9pCnXBbR1agqBeO9Ksr5QtCAgCgkAYBDAh+Oyzz/IIX7H7yyU2eHzArhkTC7Z1111XmcAlEE5I4qWXXqoXruExCd/OQYRFc23bttVeHyBwQ4cOzSPSxfLAFSkEFK8VEHuklI2zW+OM/2Yw8TIJ8SLOlIE5By8OlN2mTZucdxFnXbFDxtsTuJkFfLxwIHj3cHrdcN7Hgj3u5UstJifGjtyZxrnvNNVwnnfvC3F2I5LcsRDn5LDOZEm8ZbP4AC2vLSYS2G3heofPa26n95kEWSotCAgCgsD/EEgqciAeJfCGZARtJfawCBpPPGkgLIrD5AGlRVBhLQwLDNHi4h4t6DzNQnPIK6TdLAZHG+s01TBmDfyHZLLosJTgmQlTQzxokD82wG7B0wc+o53actJwjF017TG2yIToxisHa3023nhjxeLJM888U5N8zCaI3gexxV825iBcx/sHpL6UuIkz9tfPPfdcwW2UQ9nG5huNslnIiKkGLwLmGnUl2E05Uu6LWTllZeUeIc5Z6amU6okNFqFGbfOpjM9PbMGY/LMiuAxiMhURBAQBQcAPgaSIM27KIKpeQsCq3XffXV+CLBoS65W22LlLLrlEE1V3pD6/e9BQQxwx2TAC8XYSZ+Z+PHxAyiHBkNhSgg0yWmzSQ3ZxHxdE8ByCS7ipU6d6JufLAJpt8sZDB5p5ymCDuBqNNCTfLZhqQPoxj3FuaLMJFGbOYSbDs87kZfKBlJvgJpzjKwGmoAh1gvAawVSDoDLliBDnQtSEOBdiImf+hwBRjZgIeLO1UQjdygT17LPP2li9gjrJBFQAiZwQBAQBFwJJEWdXsXmHhM7GE0WlAuGG3BFAJag4STP3YAPsZSYCuTQBRoLmjdmHMxR4sfuwr+YZY7TMxdKaa9gxY4OM6YZZkGiuuf+jlce9HeTbuKIr9t/tbg6757feeiuXLWUbwQ8248iIF3E310r9l+dWIUJCnAsxkTNKaQ0DGgd+NOVqG5IAkkhImG0E/RSYRJ38ypAJyA8ZOS8ICAIGARuIM2QuqjmVBXOVrEex+flj+qya/4d5bmGK4iTs1YqLEOdq7dkK28VbOZ/C5s6dW2FO8d6O3XW9evXUddddF29BEeQeZgKKoDjJQhAQBDKIgA3EOYOwSZVjQiDMcyurXsPCQifEOSxiNZKehQZHHHFEJlqL6yQWSTg/VdlY8TATkI31lzoJAoJA/AgIcY4fYykhOAJhnltCnIPjKimrDAFW8GI77LSfsrmJrIZmASNhSm2WMBOQze2QugkCgkB8CAhxjg9byTk8AmGeW0Kcw+MrdwRAIAs2QLi0wVdylgRb5/bt21td5TATkNUNkcoJAoJAbAiwOI5AU0E9P8i8EltXSMZK6XVOuNoLIkKcg6AkaUIjYPvAIswnIUVxX5MlmTRpkrbJTjtASzHM5AFXDB25JggIAuUgIPNKOajJPUERCDO+bOc3QdtcKp3YOJdCKOLrtg8sXNxgppHUytgpU6YoyHqlQnQmzDVKRWWqtJxK7scPJ2YlIoKAICAIRIVAGGITVZmST+0gEGZ82c5vouo1Ic5RIRkwH9sHFn4xN9tss4CtKT/ZtGnT1M4776xJOpGRopB27drpiFdR5CV5CAKCgCCQBQTCEJsstEfqaBcCYcaX7fwmKmSFOEeFZMB8bB9YhDolalScgjabzURyioo4Dx06VOENRCQ4AmjqCSCDw37ZvDEoFcggONqSUhCIHoEwxCb60iXHakcgzPgaP368QoFV7SLEOeEetp04o20mTGoSQihVzEKiIs633nqrWn311a0O2JIErmHKuPbaa3Uf0A+yeWOQxBeYMH0maQUBJwJhiI3zPtkXBIIgIOOrECUhzoWYxHrGZuJMhKY6deroMKOVgEA+hBIdM2aMDkwyffp0z+yiJs4zZszQ5G/RokWe5cnJQgQYj40bN9YvL7zAyJaPAS+R+AgXEQRsRUCIja09Ux31kvFV2I9CnAsxifWMzcR5+fLlmng++eSTFWFw7rnnKj7ZIG+88Yava7uoiTPum9Cazp8/v6L619LNNo9HG/pB8LGhF6QOxRAQYlMMHblWKQIyvgoRFOJciEmsZ2y2AVq4cKEmnjNnziwbA7TN9evX1xpnk8mll15qdvP+R02cP/30U13/OXPm5JUjB/4ICDH0x4Yrgk9xfORq9Aj89ddf6rPPPlO///57oMyF2ASCSRKViYCMr0LghDgXYlKzZ5YsWaKJJyYPlcjuu++uNthgA4WrOcTvARA1cWYRFxrnoIEDKmljtdwrxLB4Two+xfGRq9EjIJEDo8dUciwfASHOhdgJcS7EpGbP4E8Z4jl16tSKMCBU9+abb67z2m+//ZSfzXHUxPnNN9/UZaKtsVF69+6t7b5tqpsQw+K9IfgUx0euRo+AEOfoMZUcy0dAiHMhdkKcCzGp6TP16tVTEyZMqBiDn376SQ0YMEAvNtxoo43U999/X5Bn1MT5qaee0sR56dKlBWXZcMLGCUiIYfGRIfgUx0euRo+AEOfoMZUcy0fAxudW+a2J5k4hztHgWDW5tGrVSkFoyxXMMu66667c7ZDZFVZYIbdYMHdBKV0OGu6o3NFdd9112r7aWYZN+zZOQEIMi48Qwac4PnI1egSEOEePqeRYPgJhnls//vhjYlGHy29R5XcKca4cw6rKoVu3burQQw8tu02Ye+y22245X8osFmzQoIGaPHlyQZ4nn3yy1hCzKDEKIT+bna+HmYCiwCNIHrYQwxdffFHdd999edsTTzwRpAmxprEFn1gbKZlbhUA5xHmPPfZQo0aNyttYlH3KKaeoPn365J13p5PjfNwEj3w8cMd55plnBvqN1Mp8KcQ50HConUSjR49W66+/fo74hm05xLlRo0aqR48e6qGHHlJXXXWVGjFiRF422Dzj45kFhGice/Xqpfx8PefdWOKgZcuWasiQISVSpXdZiLM/9n/88Yd+uWI8sPH14Ndff/W/IaErtfIgSAhOKSYAAmGJM+S4WbNmCpM45u4111xTrbzyyvp3xG+JL36bbrqpat68uWyCQVlj4I477ggwcmvHC5EQ50DDoXYSsbCPyZb/5QrulCBCPACSEsg49bZBS+nXZiHOfsj833m+Tqyzzjq6H6My3yleYumrQpxLYyQpokWgFHHG3z4uQ4n6eeyxx6ottthCk2PmPwJYrbTSSnmk2eY5MVrkJLe0EaiV+VKIc8IjzXYbIMhLkyZN1PDhwxNGprLibrjhBh1u+5dffqksoxjvFuJcGlw+C0IA/vOf/5ROnECKWnkQJAClFBEQga+//lprBZ1uNf/8809tcoFmGQ0yvxEIMkSZfb/t+uuvD1iqJBMEKkegVuZLIc6Vj5VQOWRhYJ199tlqk002KdtcIxQgESXeddddtclHRNnFko0Q59KwCnEujZGkqD0E+ILXsGFDX4LsJs4rrriiGjhwYO0BJS1OFYEs8JsoABLiHAWKIfLIwsD68MMPtVbDa0FfiKYmlvS1117TD5QHH3wwsTLLKQhcFyxYUM6tsd1j23gU4hxbV0vGGUfggQceCESc0UTvv//+6u+//854i6X6WUPAtudJXPgJcY4LWZ98szKwDjvsMNW6dWufVth1unPnzmrrrbfWC2LwHe0XcMWuWttRG9vGoxDnaMfFyy+/rNq3b6+JFGRKtkIMhg4dGi3oMeZGVFanDbNb08y1Fi1aqGXLlsVYC8laEPBGwLbniXctKz8rxLlyDEPlkJWBNWfOHK11RsthsxAenIfHY489pn1FN27cWK2xxhrakwdBWESKI2DbeBTiXLy/wl6lf1dffXXVt29f2TwwaNOmjWLMZUXmzp2bs3F2k2bMM9Zbbz31xRdfZKU5Us8qQ2D8+PFWu4SNCm4hzlEhGTAf24hKsWqfeOKJ2sWRrQSUBTO4oOvUqVOuGbgwGzlypFp77bW1uzsWx5BOxBsB28ajEGfvfir3rG39W2474rovS/h88MEHirUcaJW9tM64oHv11VfjgkryFQQEgf8hIMQ54aGQpYn6u+++08FLevbsmTBKwYrjE+tqq62mPvvss4IbCPGN0/ZVVllFu2vKir12QUNiPmHbeBTiHG2H29a/0bau8tyygA8eZvCHv+qqq6pddtlFzZo1S6211loF9s62fx2svLckB0HADgSEOCfcD1mYqJ2QPPnkk/rT4C233OI8nfo+phm4ZSrlmP3zzz/XwVj4rLnXXnupN998M/W621QB28ajEOdoR4dt/Rtt6yrPzXZ8vvzyS0VUwLp166rLLrsst+Bv3LhxOZMN5sGLL764cjAkB0FAEAiEgBDnQDBFlyiLNkDnn3++XngHibZBZs+ere02TzjhhMDVwfMGocB5yBA0wDbvFoEbEnFC24gDJja85CxdujTilpaXnW34hG1F1usftr1h09uIDwGk+IqGlyBslln4/Pbbb+c1DS00Zmr8Vo4++ui8a3IgCAgC8SIgxDlefKsm9+OOO06T1eeffz7VNhHRsH79+qpjx46KB0xYmThxog4ugInHRRddZEVY57BtiDK9LcThmWeeUdjUmwVPhx9+uJo0aVKUTS0rL1vwKavyqnZC4FYTPvPnz8/9DvhN+AV1QoHA9d9//73c5st9goAgUAYCQpzLAK0Wb4GkHnnkkdpm+KGHHkoFAkg7tn241PJ7mASpGA+aUaNGae8bTZs2VUm1p3fv3mrMmDFBqphYmqwTw7iByjo+NtX/22+/jbu7QudvEz5UHtOMVq1aaeKMaYaIICAI2IeAEGf7+sTaGvF5cNCgQdrc4ayzzipL41tO4wgDfsUVV+iV5D169FBE0YpCFi5cqKMNYr6x9957q3feeSeKbH3zkMiBvtBYe8E2YhUWKJvqzzoJXnr//e9/h21GbOltwgfFQIMGDfRiZr68YF4mIggIAvYhIMTZvj6xvka333679maBayT8isYpfLbkYYurJVaWQ6KjFh5QtKVOnTr6xeDHH3+MugidnxDnWGCNNVObiFU5DbWt/hDDQw89tJymxHKPLfiMHj1azz/dunVTuJ0T4hxLd0umMSPAs9OmF+O4mivEOS5kqzzf999/XxHFCrJ58sknR/5jWbx4scLdHO7k+HT5+uuvx4oohJwXAh7sDRs2VHfffXfk5QlxjhzS2DO0hViV21Db6t+1a1cFOfQS6vrSSy95XYrtXNr4/Pbbb+qoo47S8+iVV16p2wnxEOIcW5dLxjEikPbvKcam5WUtxDkPDjkIgwBkc8KECQo7YTTCeKvgc2MlWmEc+EPE69Wrpwnstddem3PBFKZu5ab94YcfdPlE4cJ9HS8IUYkQ56iQTC6frD8Ikq4/X4guueQS/XWIL0TuDQ89EET3+WHDhmkTMBb+Jhn5Lml8nCN3yZIlqm3btmrddddVLI41IsTZICH/s4ZAmr+nJLES4pwk2lVaFpH50NbuvPPOWlPSpEkT1adPH3XXXXepd999V6FV8RLu+/DDDxWO+/v166e9XaBp2WabbRQR/4gCmJawYr1169b6heDss8+OpC5CnNPqzfLLzfqDII364ysdUshLKF+OBg4cqPc5dm6XXnqpDuqBa0jn+XK85ZTbw2ngQ12Z95o3b6439p0ixNmJhuxnCYG0fk9JYyTEOWHEq90GCA0tbt723HNP7bQfIoz2dsMNN9SLXnbYYQe15ZZbqkaNGuXCxhI+tk2bNurcc8+1KkAJiyFvvPFGHb6bh5xTK1TOsBHiHBw1vlw8+uijwW+IKWXWHwQ21B+XaV5h7w877DDVpUuXmHouWLZp4PPcc8+pddZZR/uV5wXDLV9//bUm1PPmzXNfkmNBwGoE0vg9pQGIEOeEUa+VgQWsuH1D4/zwww8rTC7QMEGO+ZR7zTXXaE0zfpkrcS2XRPfxIMOvMC8BvXr1UoQiL0eEOAdHDVvYmTNnBr8hppRZ/73aUH+CPk2bNi2vh3gpXX/99dW9996bdz7pg6TxIdIpZm14B/L7Epc0BlKeIBAVAkn/nqKqd9h8hDiHRazC9LUysCqEycrbJ0+erBo3bqwDsNxzzz2h68gnWdsiFto4HjHRQcMPuUpbbMQnDCY21J8Xz2OOOSav2jNmzNBmGj/99FPe+aQPksQHzxm4vjznnHMqWgeSNEZSniAQFIEkf09B6xRHOiHOcaBaJM9aGVhFIMj0pWXLlqkBAwboB+Ahhxyi8AWdZbFxPPKC0rdvXytgtRGfMMDYUn/8pH/11Ve5qtO/mGqkLUnhYxY/Xn311Wk3WcoXBGJDIKnfU2wNCJixEOeAQEWVrFYGVlR42ZoPGjO0oqyIj8N1XVLttnE89uzZUz311FNJQVC0HBvxKVph10Vb6v/000/niPInn3yitc022PDGjQ9fTU466SS9nuPOO+909Y4cCgLVhQBmWe3atauuRnm0RoizByhxnop7oo6z7pJ3PgI///xzLpJi586dM6l9tm08soisWbNmnovJ8tFP5sg2fMK22qb6H3zwwYqvCawXqIUvCkQ4xVZ/1VVXVY899ljYrgucnkXLo0aNkk0wiG0MuD2/BB6cVZpQiHPCHWvTgyzhpldtcWifN9tsM73YadKkSZlqp23jEU2z2x42TUBtwycsFjbV/+OPP9a+2ddee23tri5sW+JIHxc+LIzu1KmTWmuttWIP6oJHIjA17u3k//+5+RMcosGBIGRDhgyJ4+eX2TyFOCfcdXFN1Ak3Q4pzIYD2GbdbeN7Ah/Xy5ctdKew8tG08oom06eXDNnzCjiKb6o97wTXXXFOTPOplg1eJOPChXQcddJB2ORd3xFPGg43eesKOU0lvLwIyvgr7RohzISaxnqkVG6BYQbQ48ylTpuiw3Wg7Zs2aZXFN/69qcRCHchuNPeimm25qlXtCm/ApB1cb6v/333+rs846S7Vo0UK98sorijkQLRYeasaNG6eDn5TTtijuiRofPMK0b99er30gEEw5QgCYzz77TLvzDHK/EJsgKEmachGQ8VWInBDnQkzkjCBQEQLffPON6tChg6pTp472WW2DWzW/BkVNHPzKCXL+pZdeyi0gC5I+iTQ24VNOe9Ou/6effqr22WcfdcYZZ+RF30QTu9VWW+kvNARI2nHHHdXpp5+ug94k6aIuSnzwR7/vvvtqk625c+eW0136nrCRA4XYlA213BgAARlfhSAJcS7ERM4IApEgQNCXunXrqv33318tWrRI9e7dW40ZMyaSvKPKJEriUGmdTjvtNB2mvdJ8orzfJnzKaVda9Ufbevzxx+sx/9prr3lWnRdKAqBsvfXWmkBj5gTBTtLFY1T4oGnG5V79+vVVpd5ChDh7Dhc5mRICQpwLgRfiXIiJnBEEIkMAAoHZBiHH0bCdeeaZkeUdRUZREYco6rL55purpUuXRpFVZHnYhE85jUq6/pBkXg7vv//+wCY3//3vf3U4ezxDJC1R4IP3jAMPPFBrmt95552KmyDEuWIIJYMIERDiXAimEOdCTOSMIBApAj/++KPq1q2b1qrttttuVkUNi4I4RAHWG2+8oQ444IAosoo0D1vwKbdRSdffZrMkLwwrxQd7ZAK54D2jXJtmd72EOLsRkeM0EQhDnHnWMX6rXYQ4V3sPS/usQaBp06YKe07cVNmiWa2UOEQF7ueff65s9BVqCz7l4pz1+pfb7qD3VYIPLwm4TlxttdXUyy+/HLTIkumEOJeESBIkiEAY4lzJ7ynBJlVclBDniiGUDASBYAgwAR111FHamwDmG5XaQgYrtXiqWpnoiqPgfzXr+GS9/v49E82VSvAhIiDeQQhAEqUIcY4STcmrUgSEOBciKMS5EBM5IwjEgoCZgBYvXqwXEqGpeuCBB2IpK2imlRCHoGVkOV3W8cl6/eMeO+XiQ0CIlVdeOZaIgEKc4+51yT8MAua5FeSecn9PQfK2KY0Q54R7o1ZsgBKGNRPFOScgbCNPPfVUbfd8zjnnqLRsQ2tloit3gGQdn6zXv9x+C3pfOfiMHj1arbDCCtojSNBywqT7+uuv9YLioF+knPNKmHIkrSAQBIEw46uc31OQOtiWRohzwj1SKwMrYVgzUZzXBDRhwgT9ubdjx45q2bJlibdDxmNxyLOOT9brX7x3Kr8aFh/c50GaIc+2iNe8YkvdpB7ZRyDM+Ar7e8oqOkKcE+65WhlYCcOaieJY/LZgwYKCuuLCq1GjRtqfLRHDkhRbxuOcOXPUTTfdpAYPHqxwS/bEE08EjpwWJ1624FNuG7Ne/3LbHfS+MPhMnz5dm2dgpmGThCE2peqNP2qiOfJFrFKZOXNmYJeElZZV7H4CUkUVVAfXg15CGUkv+P7555/zqkLfGfnzzz8VX7edUu6zJcz4CvN7ctYta/tCnBPusVoZWAnDmvnivvrqK7XTTjtpX7AzZsxIrD1pj8clS5boBZNbbLGFeuihh9QXX3yhXnzxRdWjRw/t9zpKbwXlgJo2PuXU2XlP1uvvbEsc+0HxwdXcGmusoXr27GmVO0kwCUNsSmE4dOhQbT528sknl0pa9Dph1lEG4Js9zJc0lAi///570bydFx977DEFSSwmhx56qGrSpIkq5WObOdiPGJP/t99+q8PGewX0Yc5ef/311W233VasKp7XinkTAkdcdXoJZRFc67LLLtMbrk5ZfI5Aqhs0aKDOO+88fe3cc89VK620krr11lu9sip6Lsz4Cvp7KlpgBi4KcU64k2plYCUMa1UUR8jerl27aq1WORNwOSCkOR5/++03TY5btmypfvjhh4Lqo9nDfV+a5DlNfAoAKeNE2vWHjHgJX16S1tB51SMIPv/617/UBhtsoP2MlyJpXmXEfS4MsSlWl1mzZum555prrlGYjr311lvFkhe9BqElEuTRRx+t3n333aJpnRdZ99GiRQs1YsSIkhtksE6dOmqPPfZQEEwv4SsB9YBcEmjHT+jXXXfdVR1xxBG+eU2cOFHndeeddxZk8+qrr+przz77bME1TngRcl5OUBYw5+ML3LSZCKq0jePu3burevXqKfrGLQQZIuomJJnt4IMPVv369dPJWDNDuyHdXEMjzvHs2bPd2ZQ8DjO+xo8fr9q1a1cyz6wnEOKccA8GmagTrpIUZxECTO7Dhw/Xk9ywYcOKTvZRVDvN8UgURSZzHh5ewufV9dZbT6GNdn6G9Eob17k08YmiTWnXf/vtt9fEwL34FVthCAEP2jSlFD587oac7Ljjjmr58uVpVtW37DDExi+T+fPn6+imd9xxh07y/vvva43x5MmT/W4peh5NKOQbQjtgwICiaZ0Xzz77bLXDDjs4T/nu8+LN/HHllVd6psHchL7bb7/91CmnnBJ4mzt3rmd+EF3ItZfwkkFd/MbIzTffrAYOHKguueQStc466+gXCsgxdUdLPGjQoFy2a665Zs7F4d13363Te+ULcUbpYKRLly6abHNsiDP9iDCXUr9PPvnEJA/8P4rxFbiwjCQU4pxwR5WaqBOujhRnKQIsGsTd1ZFHHql4QMQlaY1HtCBok9dee+2iHkVOPPFEPeGDRxqSFj5RtTXN+r/33nu676699lrdHMxwDIHmZYn+N8dRtTdsPsXwgXhBABs3bqz8NOdhy4sjfaXEZtGiRWrLLbcscI35wgsvaPMUyJ7XFyG/qcJRswAAIABJREFUttx33316wbMhadOmTdPEsJjG1+SFaUFY4nzXXXeZ2/P+kxfYfPDBB3nn3Qfff/+9DhHvPu8+xuwEbbwR9hnTCB5QihFncw//Ic5or40QRMdJnIlCaXyDQ5wbNmxokub9hzijnceEhK1Dhw6KFw8EcxfqgwnJwoULFS9GHJfCIq+A/x1UOr688sz6OSHOCfdgsYk64apIcZYj8Pzzz+tJFtu17777LpbapjUeX3/9dT2Rb7fddkXbxUObCf/0008vmi6ui2nhE1V70qw/X0yaNWuWs0FFI8ZDmM/ijz76qP7MHlU7y82nGD68tK2++urKTwNZbplR31cJsYHcorWcMmVKQbVeeeUVhekBWltMIvbcc091xRVXKF6I/IR5CtvaG264IS/J3nvvrY477riSSgA3ccaEgaiiKA/YeIEm8AwvNUbj7EWcIaZ77bWX7jtse9F6o+H12hiXzDG33HJLXp2dB7QZRQbzEHmwiJl7qB9iiDMvIaUkKuKMyQikmj5h23bbbfXCzrFjxypiBfDbg9xff/316qqrrlJ169YVjXOpzgl4XYhzQKCiSlYrNkBoFHlrHjNmjOITV+fOnXXQDz51MaFhj8WDiR/0448/XrACOCq8s54PGgImQDRC2FpGLcWIQ9RlOfO7/fbb9YMHLUkx4UHJA+qAAw4oliy2a2nhE1WD0qo/2kXGrbHV55M9XxdGjhypmzZ16tQ84gwRMmYCUbU9SD5++PAJHY04trpJC1jgASHoIrlyiTMvr9tss41iLcEFF1ygLr/88tyGTTCL3Xhppx54usGEgN8i7vi8yCpfDyCS/fv315pNpwkW5JeX5KZNm2rtrp/22U2cV111VR3WnBdoNswuNtxwwxyZpj7uumA2ccIJJ2hiDY6koa1+8uSTT+o0fnXivosvvlh//TN5vPTSS/qejz/+WJ8yxJlnGmUbEwmT3vnfizi3bt06R+ohuJhvQNAPOeQQX40z5k7nn39+LmsWYUL+GbeTJk3SHpwwD3nkkUe0yR919bMFz2XisVPu+PLIqmpOCXGumq5MvyF4SLjuuuv04gDezpmweCNGU8FqdCZUJml+zL169VL77ruv/gxKOjQakGomaJs/i6aBMgs7sLEES78V1uXWy484lJtf0Pt4qNLvaKKKCdoT0rFoJw1JC5+o2ppW/SEWm222Wc6tGYub6EeC/eADGXJh/CFz3K1bN3096UiaXvhAOqgbL/1pSNyRAyFPzLNogJmz0dxCbDkP+WXjnNkHA9YYoMXEFMDvZQIFCQoRiD8C4aKfjaBMYSEc4wAtNiQZN5ROcRNnyLqzPMjzPvvso2/x0zg7FzWibKA82uqlbeYc5nCkKUacW7VqlWemcfXVV6tNN900V3VDnLFFJk+eZ2ilvYiqIc6YYeDpo1xTjVzh/9sBXzyZOH2Ms7Da4MULEM9ivBaFESHOhWgJcS7ERM6ERIDPWKye5pMYEx2kmLdhbKuCCJ/3IFJ9+/bVi8F4Y+ZNu5iWIEi+tqXp3bt32Q9jJuQDDzxQfzrGx3FU4kUcosq7WD5o0nlYYTdYTPjcTzo0PmlIWvhE1da06s8Dmhc9TDIQ+g8PASy2Y4Mg8zs3x+Z/UC1rXPi8/fbb+jfGS35aEjdx5msPhI0+wKQB8szG1wHKRmg/JBnf6mzYemPSAFn1EggvChEnUTRae+fCNsgpmu1VVllF/6432WQT9eWXX+ayjII45zJTSmvumT+KPUuMxtnL8wV5oazgBf+ss87KZY1G2DlGnMSZRNgsUy7tQbDz5hmJhhgtOooAFEfHHnuswl2e08bZvTiwfv36uXLZ4WWDvqB/zMsA8yT2zmj12ed8nz598l4YKIOy0IrzUhRUhDgXIiXEuRATORMQATShvC2jncG+CpsrXKpVIkxeDz/8sNZWMPGgwYjDRKGSOpZ7b6UTEJocNCe8oLg/T5Zbp7SIFW1h0RWfJYstPMLEh3Hg5+ap3HYHvS8tfILWr1S6NOqPxhaSTN+afsNlmNP/rdtUo1Q74rruxIcXeMxLIElGaxpXucXyjZs4m7Ihtpg9YAfLhimNMZ1CidG+fXut/EABgomEFy5oObEfxo7WLVy755578k4brS7uCPEeRHhxp7iJMwTbrXFmLCF+GmdnfpgnMH/g5o6+9togkqTxW0eC1hx3cyiEDOFknDgVGG7izHOMRY7g6BajcTbn0QhDojGzYINYY0vN/vHHH69WW201k9TzP2MVpQwvq87nL2sJeH56uc/zzMjnZKXPLZ9sM31aiHOmuy+9yuNIndW/TCAQXTMhRlmjp59+WtvgMZEwycdRRpT1LZVXVBMQmgZeVrAPr1ScxKHSvMLej6srHlgXXnih561opdFKEgwlLUkTnyjanHT90Rh36tRJu+WC9GCygcaRL0hO8SPOSftJNvhAPiAw2ODioSBNSYo4Y4ridGfGi6whurhvg3QZoU9ZlOcU/DNDfvmdPvXUU9rXMATTb8MlG8S8mGtJJ3FmLDE/QFwxjWDjfszWkCDE2Xh2wQMFzytMCVnA59zQOLO4zksYCxBmhHkKTyMsmmTRqFP7jhaYujq163iy8PJV7ibO+D3GrANzGTYC7WDGwT4eaXiB8RPKO+igg7RtubNsk96Y+dGXmGjwMhNWwjy3+HJkvlqELSdL6YU4Z6m3LKgrPzw+OUHc+HRVbBKMoro8SFlQhM00k6afViCKsuLOI8wEVKouPPToA2zGK3mhMMShVHlxXUcTxKdJHrxOYcIHr6222qqoRtp5Txz7aeNTaZuSrj826RApxBBnjiEBTvEizoR6Pvzwwysaz84yguwbfPiMjWYPzWHaYgNx5nfpJs5u7anzSxHmHHwF42uD14ZZCN42IJc33nijL8RO4oxNNekx4zOmPFw39QhCnNHAYucLOcUnPPOm0bDzH+UDC6/9+p3r5kUKwoxvajTUJtCIaQhfU6hrkNDebuLsdNNIfk53dGi4vZ6xzPm85BBtFhMb6gj5N247UUqAG+cxhaH91A/baxYi4rEpqIR5bpnfU9C8s5pOiHNWey6FemMHx4+OCRBtcJLCxIQ2iEnO+M5MsvwoygozAQUpDztyXiiwZXPaFga516SxYaLD/o/V/Swcwv6RhxL2ejwknVodU+ck/9uATyXtTbL+vOQ6X4AgzhBkNHb0pfGMwH8WC/Pi5zxHOmxHCW+dlIDPuuuuq0nFgw8+mFSxRcvJCnEu2gjXRchu8+bN1cyZM11X8g+xzTV+nCGhaJmdc4DTDtkQZ2y2iwlhxNFSo0Vn4bnZIJSYSKDhRRvuFgir07yI69SN9J9++mlecrS5EFMvDXNewv/5ceblAeLOfMeLJWXRHjYUCcyJ7POcRXnAS4QRSC8LMSHxYGq08XhAYeNZwBfhjTbaKHeNF1JspdHeG3Jt8iv1P8xzK8n5plS947wuxDlOdKsobzSAkFZ+qO5JI6lmUgcmLiYEPoNlTcJMQEHbhis/IrDhBqqchVU2TXQ8KFnEY9OnPpvwCTomnOnSrL/RODvrY/a9NM7mWpL/MQHj5RPCZoskRZxpO4tzP/zwQ72xmNOQKrfGGftmyFopoe7MSc4XecwNWNjs1FD75YPJgiHOfmnMeUOc/TTYaGuNGzmIKV80nCZ/LO5Du4tpSRBBywtZxRbcHboaogtxdhJcd568WOIaDtND7LR5QaSOmN6xaJAvq2z8biC45pj/Tg2xefahPceu2Qj9Y7TxvEw4ccQG3Zi4mPRB/4d5bqU53wRtTxTphDhHgWKIPLJoA4R/SH6EEGfIa5pCXXBbhyugoF470qyvs+wwE5DzvlL7aHGYzFnA42Xnxv1+i51qZaIrhaHf9azjk2b9s0CcwQfbXrPoy28cJHmeBXMoKPzMB9x1KXde4SsAbcfEgg3NuwlcwoI/SOKll16qtbIsSMa3cxBh0Vzbtm01IYTAofF1EulieUAYIfAjRowoufGyA1n1WuuBDTNrIyCMTlM27JSxGWbxXRjSTJ0h9djqg5tZwMdLB0LMAqfXDWcbMRfhXr7UshjT2JE70zj3naYazvPufSHObkSSOxbinBzWuqQ0H2TlNJVJh8UHaHltMZHAbotP+ZiNOD/dldO+JO8p9wEXpI48ZHngtGnTpuBzIQtk+EzntfI9a+MxCBZRpsk6PmnWH7LF4kAvwVMC9pZpS5r4RNX2cucV7LrxhmQEbaVxDQeB5UUcgWyycBKlRVBhLQymESzuxT1a0Hkan8pOTWmx8ozGGY2tU/giihkESiq3YHqB0gXCDW6QWEwQiwmkH5JOe8wL1vTp03VQJsyNNt54Y70g9swzz1QXXXSRNo/A1h9ii79sSDyLK407xmJlcc1NnNHUP/fccwW3YaJB2dSNDY2yWciIqQbPA3ONAFKYw5UjYcZXNfyegmAkxDkIShGmydrAwgaLT5nF/GBGCE/grAgViy2Y0/9l4JtTSoh2AjdMcQmul5hIt99++9wnQ+znWBTDgwLyzMPGKVkbj866J7GfdXzSqj8v3Iw5v2ALeOKBVKUtaeETZbvDEBtnubgpox+8BBv03XffXV+CLDq1tl7p/c5hw844wMdzEMEW97TTTguSVH9FwybevfDUfTNz3n333aeJMqYNaNcxd0ATjsYd8sscyRdVbISps2kvnkNwCYdpkZcQmRBTEeqBhxJeFmkvG8TVaKS9FvhhqoFtNeYxzg1tNou+zTnMZHjWmbxMPSDlJrgJ5/hKwHhGqBPjwghKk3K9E4UZX9XwezKYFfsvxLkYOjFcy9LAwkk+EwFvtjYKLoaYoIyvWBvrmHSd+CqA3SIa+RkzZuiwuWYyh6i4tc42jUfqa1awJ42bX3k24eNXx2Ln06q/0QZ6acqoL0QGwpK2pIVPlO0OQ2yClsuaCYJzVCoQUMgdAVSCiNHoBknrlwZTF8YX5h5o0dFi4zbvo48+8rwFcky0PYKDQNyN4I2DZ0yYOmHHDCnHdMOE4zb5uf+jlce9HeQb8l9qc5vhYffsjJJI2UYI+e1cK+JF3E3aUv/DjK9q+D2VwoPrQpyDoBRhmqwMLCY8NA78aMzbd4QwRJYVkx0kMeinwMgKtjgjbL/53InbI0OanVoQJ1a2jEeC3OAbtUmTJp6fWNOC2xZ8ym1/WvXn8zdjzullw9kGPiVzPQwpcd4f1X5a+ERVf/IJQ2yClguZc84TQe/zSseCuSTXo1BeEO8WXnWVc4UIhBlf48eP167vCnOprjNCnBPuz6xM1PiAREM5d+7chBEKVxwaVrxK4Nhe5P8QwMZvgw02KCDNEBX6FJ+rRmwYj7yY4RaKz5Fersgwy/GzlTXtiOu/DfhU0ra06g9xxt+72zTItAUzAV56034pTwsfg0MU/8MQmyjKkzxqCwEZX4X9LcS5EJNYz2RlomahwRFHHBErFlFljuskbHudn6qiyjtr+aC5ZeW2W9NsNM78Z6Gn8bJhw3jETRQeGAi4gN2hc2PBDe0hOIWfvWycfWQDPpW0L+v1r6TtQe6tBnyE2ATpaUlTLgIyvgqRE+JciEmsZ7IwUWOXCMFy2k/FCkqFmbPgjgWMhCmtZWFFPKS4GGmmX7EtJdoUkvZ4RJO8/vrr5xa1OPsPcs8ipbp162ofsqVsBp33RrWfNj6VtiPr9a+0/aXurwZ8hNiU6mW5XgkCMr4K0RPiXIhJrGeyYAOESxt8JWdJ+OyLf85aFkLdYooRhDhvsskm2rdqmsRhypQp6phjjtGeRljtTlhY40KKYC70Kf6pWUCTlqSJTxRtznr9o8CgWB424sMLIzbGQQMaCbEp1sNyrVIEZHwVIijEuRCTmj6DTSIhRd3eF2wHxZDGtAO0pI0T9sAnnnii9pFbjECjdcYtUxrEgYAAV1xxhQ4ra/DCgwukH/++7O+yyy56oSAr3tOUNPCJsr1Zr3+UWHjlZSM+SUUO9MJDzgkCbgSEOLsREa8ahYjU+Blc3PA53+nKJg5IXnnlFXXBBRfoyFRR+IiGjGGuUSoqUxxtCZpn7969tVP8oOkrSYdLJuyD8QnqRaAhzkQnIwQt9uFJCr6l6S+3oIEmmAGLPbFbt2FlvI3Eyo1bseOs179Y26K4ZiM+Qpyj6FnJIyoEhDgXIika50JMavoM4UQ322yzWDGAFPEJHnMBY3OLBrJS4VM/Ea9slTQmoO+//15HsyIaFZHawNu5YUOcNHF29w+eNPr166c1zJD5/v37K3yc2iA2EqswuGS9/mHaWk5aG/ER4lxOT8o9cSGQxnMrrrZEla8Q56iQrJJ8OnbsqBdkxdUcTCqIDEUYU1xREbyEqE1oRbHrq0TwxoA3EFslzQkIIkogG9zUoW02W4MGDTRhTRIzFnPyZWDw4ME6DC2mJU888YR69dVXdbhZzDTcJjcsWIVQM26SFBuJVZj2Z73+YdpaTlob8RHiXE5Pyj1xIRDmucUalbi/VsfVzjD5CnEOg1YNpEXbTMjRuIRQom7yAyFCC/rAAw9UVCxBFQiikbZvWL9GhJmA/PKo9DxBDcCpWbNmOc0zXi2SEhY8Pfnkkwr/285+wjYbUt+2bVttpuF0SceLFu7oGCOEgE9SbCRWYdqf9fqHaWs5aW3ER4hzOT0p98SFQJjnlo2/pzhwEeIcB6oZzRMiw+d8woxWIuSDJ4QxY8bowCTTp0/PZUdgBLc8/vjjmhQ9/fTT7kuhjgnZDLlatGhRqPuSShxmAoq7TkRsmzhxomrcuLE2m4m7vGL5o4HedNNNFS9V7khyvGR1795dj8sbbrihWDaxXMv6g8C2+hMK2CaxDR+wEeJs0wiRuoR5btn4e4qjB4U4x4FqRvNcvny5Jp5oBCuRc889V+F2D3njjTdKurYjkt26666rli1bVkmxat68ebr+8+fPryifuG4OMwHFVQd3vmlPdIwTzGtuv/12HeJ92rRpuSpCorHB5mUurUWfaeOTA6PMHdvqTyj4nXbaSTHXuIWvEEmLbfjQfiHOSY8CKa8YAmGeWzb+noq1rdxrQpzLRa7M+2y2AVq4cKEmnjNnziyzdUp/fq9fv36e791LL720aH777LOPuuaaa4qmCXKRUNNonOfMmRMkeeJpwkxASVUurYkOe3YiU44YMUL9+uuvurmME8Ju8wKFW0T8iRP85N57700KjoJy0sKnoCJlnkij/t9++632QUwkT/fGb2DgwIEF503ESzztJClp4FOqfXjEYZEsioAgYuO8EqTekiYbCIQZXzb+nuJAWYhzHKgWydPmgYUZBcQTk4dKZPfdd9f2qrgXQ4o58ifN0UcfXUlxuXuJLEf9gz5wcjcmtBNmAkqoSqn4cf7hhx+0D2m3SzoiH3bq1EnhnnDrrbfWY6iSl7goMLT59xqkfWnUf+TIkapv377qrLPOKtgwDdp5553zzmPP7kxrguAEaV+ladLAp9I6u++3cV5x11GOs4tAmPFVDb+nID0lxDkIShGmsXlgoeWDeE6dOrWiFhOqe/PNN9d57bfffr42x5hUHHLIIUWJdZiK4NaM+lfqnSNMmWHSfvjhhzpKXph74k5r03j86quvtB9nvKzgz3nx4sVxN79k/jbhU7KyHgnSrP/cuXP1C9JHH32kzAZp5kuCOWauwIsKXlXSkDTxiaq9YYhNVGVKPrWDQJjxVQ2/pyA9K8Q5CEoRprF9YBF8YsKECRW3+KefflIDBgzQ9qkbbbSRwp+wUwhugaY5Su3SU089pYmzDYEznG21eT/t8YjWma8OBx98sNpwww11QByb+i9tfCodO2nWnwXCvMgyn9x33316a9GiherQoUPuGBMt0hDFMg1JE5+o2huG2ERVpuRTOwiEGV/V8HsK0rNCnIOgFGEa2wdWq1at1LBhw8puMWYZzocgZBafwWaxIBlDlk466SSFLaRTsLHG3KJcue666xT21SLBEUhjPOLLe/jw4eq4445TXbt2VZdddpk2D+KLh22SBj5RYpBm/V988UVNip3BbAhShHtBI3wdgjiTNg1JE5+o2huG2ERVpuRTOwiEGV885/mNV7sIcU64h22fqLt166YOPfTQslGB/Oy22245H724piPIxuTJk3WeLBZC4wQ5v/7663PbRRddpDDr4Hq5cvLJJ9fEj7ZcfLzuS2M82uou0BZ8vOpR7rk0+tfUFfeSRAg9//zz9SJQFoISLZQHMftsgwYN0j663333XXNbov/TxCdIQ5955hnt0pO5EneMN954oxo7dqzexo0bp/BIhCtHTOMOP/xw/SLKyygLb7EbHzVqlGyCQUVjgMiyZ555ZpDhWjNphDgn3NW2T9SjR49WBMRwBqcIAxHEuVGjRqpHjx7qoYceUldddZV+QJo8OI+GyWtjoq9EWrZsqR8gaDBnz55d4BO4kryr9V7bx2PauGcdnzTqb+YOvKO4Xcy5Nc64HGRx4KxZs1Lp6jTwCdNQXjL4YrfyyivnbURaNRvXveZT1grgnUM2waDSMXDHHXeEGbZVn1aIc8JdbPtEzWIdJmH+lyt//fWXIkJdkqE30WJS73333VcTd/bxDY32Ba2MrQsGy8U4qvtsH49RtbPcfLKOTxr1/+6779RRRx2lvyoZzbL579Y4c54vUpiI8bXJHVW03H4Lel8a+AStG+lQPECQvYix1zlINBuuHc0LTJjyJK0gIAiURkCIc2mMIk1huw0Qk22TJk20DWqkDY85Mz5jEm7buDh77733dOTCjh076vM8ZHjrxk0WmnD3YsWYq2dt9rYTh7SByzo+ttXfrXGmf/G0wULim2++WR122GGJfimyDR/wQPHAiz7rRXDR6EWQvc5BsPGDXmkAq7R/c1K+IGA7AkKcbe+hFOqHKzA0Q1nSWOy6667azZUXXGiyWHx03nnnaftKItGtuOKK2g0WUQ6ff/55rSH3urfaz9lIHGzCPOv4JF3/d955R9vaMofw23JvvJTjfs55Hm8qkOcjjzxS34tdb1KSND5B2uWOHGjMNbzIsjkHacb3uXxZC4KwpBEEKkNAiHNl+FXl3fgb5nOfWdBneyNfe+01rZUJGrgFd2d4dujfv3/O3/Rqq62mDjroIIWN99tvvx1Lk3v37q214LFkXmamNhKHMpsSy21Zx8e2+vtpnFnYm4bYhg8YGOL8+OOP68XTLP7jRd+QZPd/5uru3bvnvralgaOUKQjUEgJCnGupt0O0lU+mrVu3DnFHekk7d+6s2rRpU3YFPv/8c3XLLbfohw8LI3kwNWzYUB1zzDGKRREE5ohCwrj1iaK8IHnYSByC1DupNFnHJ436Y16AV4dTTjlFu57D/ZzZ8Om+44475o45v8EGG+jFxEn1qbOcNPBxlu/eJ6rmFVdcoecgyPIaa6yhsYQcuwkz19muvvpqdzZyLAgIAjEiIMQ5RnCznPWcOXO01vmBBx6wuhlomXmgoJ2JQljlTwRCwgbjHm+VVVbR+fMZ9NRTT9VRFZcvX15WUUKcy4It1ZtsI1ZhwUir/matgbu+XhpnIgk+9thj7qSJHKeFj7Nx+LkmQAxRVOvWrZubc/AO9Ouvv+qkLHp2ap0xzWDxM0FmRAQBWxAgoFmSTgHSarcQ57SQz0C5J554okJDRBRAGwXbZVzQderUKbbq8eDCH+2QIUPU9ttvn3MNBQHA9zRutIJ6AhDiHLybeHmxQWwgVpXgYEP9IdGsl+A/L6D8lmyRtPBh4R8RM7HrxkwMIoyp2J133qlY2IwyABM0I7fffnuOOLNGA639ggULzGX5LwhYgUBav6ekGy/EOWnEM1QebqVwFdWzZ08ra43/Vx46SS6IWbx4sdYO9enTR+EYngccQR66dOmiAxQUi3woxPn/hhHjyi3OPkQDt+qqqypswtOWrD8I0q4/L5UQRAIeEdWT3wtmUbZIkviAxfTp0xVzB3MG5hd77rmnIpCJM4qqsXF2Emc0eZBr8Dv++OO1xw1bMJR6CAIGgSR/T6bMNP4LcU4D9QyViWsjJnibHnbAx6dd6pW2Y/aPPvpIL+DhM+taa62lH2x4JDnhhBPU/fffn/dAFOL8fwMf7dnBBx+cix5H6G3caBG0Bpk4caImCc5ocg8++KCCPCQtWX8Q2FT/u+66S0cRtMlbT9z40NaZM2eqgQMHaltuiC9eRViE7Ld2wos4M+4x3bj11luT/glIeYJAYATi/j0FrkjMCYU4xwywO/ss2gARMpfIVbb4B4Vg4bMZcmqT4H/15ZdfVhdeeKHafffdNfmD3PNZlaiIW221lRo8eLBNVVZpTHT33HOP2nbbbbW/WjDDvrNFixa5cOtEl9xyyy1zLsvOOOMM/ZmaUO5JSxr4RNnGrNc/Siy88ooLH9aIYJJivkphUkZQkk8//dSrGnnnvv76a+1zft68eXnn5UAQsB2BuH5PtrVbiHPCPZLVgYVWELKKz+M0hYiGfPIlsAmky2bBNvzRRx9VgwYN0qQZbRP2ifvvv79eOT937tzUfWWnMR7vvfdetd122+W6jgWo+PFFsIOlf52aNaKnoZHG+0nSkgY+UbYx6/WPEguvvKLEBzeeRELkpY/fOgGX8FeNb2sRQaAWEIjy92QzXkKcE+6drA4sSCoLWfAyQeS9NATSjjkExNNv1X4a9QpaJivg6X/CEeOCi4crJBFcIYpRrUYOg00a49GLOKOVRy6//HJ17bXXKvz6svhz2bJlCheBY8eODQpzpOnSwCfKBmS9/lFi4ZVXpfjwMjdq1Ci9cJjfM4upcbH3+uuvexUn5wSBqkag0t9TVsAR4pxwT2V5YOGqDe0p5geYHiSl8cVOEN+mLI7hM/4ff/yRcK9FXxxt4lMs2tQDDjhA1atXTxPpLbbYQocfJvhMOTa9aOTRatM/rNwvJWmMR2xdMc3gRYGNcOmYsRAGHd/ZCJp67ELR4O21116paebTwKdUn4W5nvX6h2lrOWnLweebb75R1113nWrbtq3+zfKDcw6qAAAgAElEQVRi17dvX+0ajjlSRBCoVQTK+T1lESshzgn3WjUMLBZ34c2CMNeYG8Qp8+fP1xpmbKwhmTYtLIqy3ZDc5557Tp1zzjnabAGfrRBgHs7YmL/00ks5G+Bi5bKAiPvYIKel+ieN8Yh2nbrRn2jp+vXrpwhiQyCHJUuW5JqHm0FeKIp5KskljmknDXyibErW6x8lFl55BcWHwCTjx4/Xvt35bWI6dOyxx2r/8XwZEREEBAGlfyO4aq12EeKccA8HnagTrlbo4t5//329AA6Cxmf1qMwMTEVw+4a7OUxDWrVqVXOfPnHZhneJk046STVr1kwTTKKI4Y3immuuUeDvJSxKhIyyGQJ9ySWX+PqaTmM8EtJ84cKF2g8t9cS0BE2d0yUXmnNCDe+0005qm222UQ8//LBvG7xwiOpcGvhEVXfyyXr9o8TCK69i+BDoCLMiXup4ccdFYteuXfVY/O2337yyk3OCgCBQAwgIcU64k4tN1AlXpeLi0P5OmDBBNW3aVD9Y0MBgh1yJVvjVV1/VRBxNI2GvsXcNGmCk4gZZnMEnn3yi/b0efvjhap111tHEGHtKfB3jpYLPxxBQ4+vVkGf+oyHDhpjFS25JYzwSjhkzDEIzUz/GCxp1I+yzeBDyTN9j90xENbR8mLVMmjTJJI39fxr4RNmorNc/Siy88nLjw5cfzKS6d++eC0zSoUMHhXmRrYGgvNol5wQBQSA+BIQ4x4etZ87uidozUcZO8qkS8w08I0CEmjRpop3887DBF6+fdob7IHN4VeBzPavQuR8N4/XXX58LN5sxOGKvLmSS4AhokrH/hVSCm9FMs+/eINSkGzNmTN6LTRrjETt1vA0Q+Yx6Yp5C+OCbbrpJvyjhlWDRokU5HPlM3r59ex0hEu3f0qVLc9fi3kkDnyjblPX6R4mFV17gw3xFdFA8BxGYhBfNvffeW49Hr2A9XvnIOUFAEKgdBIQ4J9zX2MlVsw0QJgSEoiYiliF0PIg23HBDxcK3HXbYQbtratSoUU47Cqlr06aNJlO2hFpOeFhUVByR9h5//HGNIZ+U3aTZeczCTsafce2WBrHCqwiL/gxxRuP8xRdf6C8NLBSkviy2glyzEfqdc0lqmk2HpIGPKTuK/2nX3y/IB32f5AuQH5bgY34zrNnAzh4/ymkKi66JpBlkcW+a9ZSyBYFaRUCIc632fALtZuJH44x9KiYXBACACKEpxU4XTTOf48O4T0ug2pktggV3TpLst8+LCqYwLNJLg1h5EWdc9aFJx7MG9XaalXzwwQfak0saHZMGPlG2M+36b7/99tou2O1tAtthxiCKhDQFfBo0aKCJapr1cJbNehF+A86Q287rsi8ICALpIiDEOV38pfQaQgB7ZEwl4hBsnP2IcrHzkG1spZMUL+JM+dg8G7tnIc7R9EiaxPm9997TY5KXZoSvCoZA4wueL1HmOJrWhs8lTXz8aivE2Q8ZOS8I2IGAEGc7+kFqUQMI/POf/1RnnnlmLC29++67SxJnvGxgPsPGviHUeAtIUgxxfuWVV3QdsC0dMGCAeuqppxQ2pdRLiHM0PZImMRw2bJi2uzfu2rp06aL4DXCMn27GYNqSJj5+bRfi7IeMnBcE7EBAiLMd/SC1qAEE4iTOgwcPzhFhiCfaPBY64dJtl1120W7s+vTpo4YMGaJGjhypbrnlFm0z3L9//0Q1zrfddpu2cYe84wuc8p0k2RBniDR20Gzs06akAu44h6KNxMpZv1L7adUfu3UWq9LfCGY4jEfGHjJ16tQ84kzf3nHHHfpakn/SwqdYG4U4F0NHrtmMAEG7GL/VLkKcq72HpX3WIBAnccY2ePbs2erTTz/Vi66CugRMmjjgspBw44QpxluGW/Cm4dY4s+CUc17p3fdHfZw0PtVSf1wKbrbZZrmXnVmzZuk+xIPK6NGj1QknnKDt1tln69atm77Ouockxcb+DUucn3nmGf174jclm2AQxxhwKjeK/T5t/D0Vq2+514Q4l4uc3CcIhEQgTuIcsiq55ElPdMuWLSu6GBRvCy1btlQEnzBCsBQeBmlI0vhE3ca06o9XHfywY5KBXHzxxdo3MhopNggyX0XMsfmftCeJtPAp1s9hiTMeidDm485TNsEg6jFAEDK+VAYRG39PQeodNo0Q57CISXpBoEwEhDiXCVyKt9n0IICE4n0kzIK6NOqP20ACiGCO8+yzz+re22OPPfK8RLhNNdLq4jTwKdXWsMTZxnmlVBvlenYQCDO+bPw9xYG0EOc4UC2SJ5qVWrABKgJBzV4KMwElBVKtTHTl4mkTPmhwMVnBfRqLTIP4PE+6/miMO3XqpL8YoKnCZIOvB4ccckheF/gRZ7OQMC9xjAdJ4xOkKfiRRms4b968IMn1gsu4Fh0HqoAkqmoEwjy3bPw9xdE5QpzjQLVInrUysIpAULOXwkxASYEk47E40jbhU79+fU2cIc8maAcL8C644AL10UcfeTYk6fqPHTtW4XcbMcSZYxNwx1TSiziPGzdOEVI+qH2+yauS/0njU0ld/e61cV7xq6uczx4CYcZXNfyegvSQEOcgKEWYplYGVoSQVU1WLLDAhtcmkfFYvDdswsdJnCHPZjMketttt9UBbZxjLMn6oy3GpaARiDMEuVevXuq8887TgY8IfsTWs2dPvTjQHPOfdLgqDKJJN2VU+j9JfCqtq9/9YYiNXx5yXhDwQyDM+KqG35MfDs7zQpydaCSwXysDKwEopYgIEJDxWBxEm/DxI86GQPOfqJD832233dTNN9+sF+VtvPHGxRsZ01WjcfbK3kvj7JUu7nM29W+5bQ1DbMotQ+6rXQTCjK9q+D0F6WkhzkFQijBNrQysCCGTrGJEQMZjcXDBB9vinXfeOfUNv9dOklxsf4UVVtBp+b/mmmsWb2RMV4U4xwSsK9swxMZ1qxwKAiURCDO+xo8fr9q1a1cyz6wnEOKccA8KUUkYcCmuKAIyHovCo00fGjVqpM4+++zUNwhwMbLsvGY0z4RTX3/99Ys3Mqar1IHFgV7y2GOP5QVA8UqTxLlqGP9hiE0SmEoZ1YWAjK/C/hTiXIhJrGeqYaKOFSDJPFEEZDwWh9smfEqZahhbZwKPYDNMMJy06s8CP4j8iy++6Anwww8/rP04e15M8GRa+ETZRCE2UaIpebkRkPHlRkQpIc6FmMR6phom6lgBkswTRSDt8fjNN9+on376KdE2hyksbXycdfUizoYsb7jhhuqss84qcGGWVv1/++03TZyfe+45ZxNy+/fdd59eHJg7kdJOWvj4NffOO+9UJ510kvr444/9khScF2JTAImciBABGV+FYApxLsQk1jO1YgMUK4iSeWQIpE0cDj30UNWkSRP1zjvvFG3TV199pf7444+iaeK4mDY+zjYZ4mzMMIgWd/LJJ6uZM2f6unBLq/5LlizRxNnpZcPZlltvvVVfDxPMxXl/VPvggy02Wvq9995be/sgLPgNN9ygpkyZoj18EAY+KRd5nTt31rhgm45rviC+nIXYRDUaJB8vBGR8FaIixLkQEzkjCNQMAmkRKwCePn26JgmXXXZZUWKCm7Ndd91VHXHEEervv/9OtG/SxMfdUHw216tXTx1zzDHqiSeeUH/99Zc7ScFxWvWHOB999NEKzbOXoFnlpSkpQupVB86BDzbgl156qX4JOfjgg9UOO+ygzEuKsRsnCiL4s/CpR48eOgTxtddeq4iS+PrrryuClkTxEoBLQVNmnTp19P6BBx6oZs2a5dcECYDii4xciAIBIc6FKApxLsREzggCsSDQu3dvNWbMmFjyLjfTtIgVpG/rrbdW++23nzrllFMCb3Pnzi23qWXdlxY+XpVduHCh+vXXX70u+Z6zqf6+lUzxQjF8IP3Yic+YMUPdc889auTIkWrgwIGa8ONlBW8rxnsJZJcvAbj+a9u2rerWrZs6/fTT1ejRo9WDDz6oXnnlFfXll1+WfNlZd911c8TZEGjzhWH33XfXL5tuuOIiNmF+a99995365JNP3FXTx7xUvPfee57XgpzEnIt+KEf4zdxyyy2+L2i8gIZ54fH76kUdly5dWk4Vy77n559/zrvXOTegbCBKsVM+++wz52Hg/bjGV+AKWJhQiLOFnSJVqk4EbJyAihGHOHuBgBjgYaLM+ZX1/fffq/vvv9/vcuzn08InqoZlvf5R4eCXT6X4QKSIioi5DOP0qquuUoMHD1Zdu3bVX0nwarLiiivmyDD7nOMLCqYYp556qrryyisVNt/Ygxuy7PXfaKDRiE+ePDlHBsudVwiF7if/+te/9EtB0FDemFpR5zvuuKMgy2XLlinMioYMGVJwLcgJwri3atVKnX/++UGS56UBX3Djy4BbIOO8+IwYMcJ9yfP422+/VS1atFCvvfZawXVervhycdtttxVcK3WCwFh+whe2N954w/MyZe2///6KL3Zs+G4ngBACqW7QoIEOPMS1c889V7/YYSIVVsodX2HLyVJ6Ic5Z6i2pa6YRsHECqpQ4lNMhEydOVHvttZdCo4U2bcCAAXpiZ3J3b126dNEPZLRGaUga+ETZzqzXP0osvPJKAh++rqBtxtyCsX/11VerM844Q3Xv3l2TnU022SQXuMaLMLvPGSK+xRZbaE04JDwowXVicOSRR+oAOV5a1IsvvlittdZaCrLoFDTLXsJiRuqJ5tVLsBtHC2+E4DxeESL9tL+sDcJcxqlVNXn5abPRdK+66qp6TjFp0bpefvnl+pA68cXLWSZk1I+o0ne0ETMjt7z66qv62rPPPuu+pI+9MGZ9wkMPPaRfsg477DBN4CHxp512mq4z+4wRzLO8THV4UeOrHSSZDTOjfv366fJoE3WlLVyjXziePXu2Z/2KnQzz3ELL/e9//7tYdlVxTYhzVXSjNCILCISZgJJqTxLEwdmWt956S51wwgna9pWHGJM5NqJ+8uSTT+o0adnCJo2PHw7lns96/cttd9D7bMEHovPII4/osc5vIshmzEQglIQwDyvvv/++Lueiiy7ShBRTAzScbJtvvrnWVppj/qMZxfYb8wa3oL2lzoY4P/3007mFlrwM4wcdjbPZZzEmGlK3DfyECRPUNddck6uHKR8SjB26OTb/0dLjWebee+91V0mbf6HpHjRokJ5zIKKHHHKI1l6zvgKzmr59+2rbdq7xFQwius8++yhMHdwC0eUlxUuY12i/nxafFwXMfHATuc4662j7f7DgawNaYupoBH/tzzzzjD68++67dXqvfCHOLVu2NLcplAy0AzHEmT5G8FxE/fzMaXQinz9hnlu2/J58mhLZaSHOkUEpGQkCxREIMwEVzym6q0lPdDxgjPA5mMn8uOOOK9A0G80zWjHSCHE2qIX7n3T/hqtd+qltwse46GO8F9vQOBu7Z0jzGmusURZxBn3stEeNGqW1krjBGz58uOrYsaNab731tDYazbN78/r6Y16CIc5odN999121ePFi5faqQkAcftOYt3gJph5oWN1lljq+/vrr87JbsGCBzgdijcZ/gw02UNOmTculufDCC5XRDvMiH8TEgpcJSL0R9r/44gt9iPcT+syL4Jr05j/EGe21ERb7Ookzmn4ncaaPvATijOkIXwXYOnTooF9QSIt5C/XBhAQ77/nz5+vjUqZxXuWEeW7Z9HvyaktU54Q4R4Wk5CMIlEAgzARUIqvILqc50ZmHbRCNs9enzshAKJJRmvgUqVbgS1mvf+CGlpnQJnzQPkKE3aQZkmzMM1g8iGaRRYfY2qIZrWRegVS5hYWPkF8+6xsNsjsNxxBjPKdg8gDxo97Yd7M4sk+fPvoW6oqW1QgLgbfZZhtf4nzXXXd5RrrE1CWM9O/fXw0dOjR3C55J0CSjqUb7DXE2QpAetPd+Jh+k4xqabRZ88lJPO2kvJhaIIc64LiwlURFnTEYg1VdccYXe8Mgybtw4NXbsWN03eIGB3PNSge09Y0s0zqV6J9h1Ic7BcIosVa3YAEUGWBVlVMkDLi4Y0iQOxi6SBTzUw2s78cQT9QPKz7YyLlxMvmniY+pQyf+s17+Stge51yZ8+B1A4ExQG4gZJg1ogiFJfp4lopxXCIXOojLsYiGXmA34levE17wEu4n2TTfdpBo3bqyTYp+MXTY2sLwIQ5Ld4keceVFw1+P555/X5h/uAErkjxYXkmzk8ccf1y8CnAdX6mHmFLSzEGAWIvsJGm805UbQnJOPCVRjiDPzFRpsYyJh0jv/exHn1q1b5766QXAx34CgY1rip3HGPMW5YJJFmHwN4CWLxZBo3TEPwQSIL3bU1YmJs07F9sOML5t+T8XaVOk1Ic6VIhjy/loZWCFhqYnkYSagpABJczyixeHhwydHPk9ed911Co2Nc8PGGY1KWpImPlG0Oev1jwKDYnnYhA9+odHWosHFrOCHH34oVvXctUrmlUcffTRnFgBx3GqrrfQLLJmjdW7atGmuHIia35cfJ3HGhze/6alTp2pyPGzYML3Pf4gc5w2BdS+0M8QZovfCCy/kyoaIojF2mmyh5YYkEr7dKZgjuG2Usfnt1auXDnaDOQimImihDXl23u+1j1cPp5kGCzw33XTTXFJDnDHVgPDiyQOttBdRNcQZ+2W8kZRrqpEr/H87vOw0atRIf40w115++WWNG8e8IOy5554KDXsYCTO+bPo9hWlj2LRCnMMiVmH6WhlYFcJUlbezuAYtgE2S5nj85ZdfFBM7QSWwqcTHNQ8ns/F5ccsttwwUPS0uTNPEJ4o22Vh/yI+TAEXRznLzsBGfsG0JQ2zI+/bbb9dkDSKLdhmtNqQKrwxovI1Xh3333Ve7kYMIQnghg5gqeImTODPPYTeNfS3eICDgaM3R0nLs3NzmERBpFiAiaF2dHhpw4+d0K4cpwvHHH+9VnbxzjDXSofl2moXx0sA5Xtj9XgjICM8URJUkpL0R6oY5iBEnceacMV1hwSHCixBmLWiI8fRBMCfwPfbYY7VfcKeNs3txoMHDlDVnzhxtroPJCX3DRl9i77zddtvpfc5hLuNcP0IZBB1CK86LRFAJM76q4fcUBBchzkFQijBNrQysCCGTrGJEIO3xiB3ijjvuqFfAE1bbbNg08mBh4RMr0tOStPGptN221J/PyEZ4aO+yyy55tq/mWtL/bcGnknaHITbuciDNeKtAWLgLATSCeYRT42zOu/+jZWVxHV+PcDmHttmp8SWMOG7VnOfIwyvyJb91o8kl6AyeNwzJa9OmjdYac68hqmhsiwmkl8Ax1MvLFAP7a7T8fPGCDOP2jgWNTsKO6QXu5tBYm7pA2p3eRUx9zOJAiDj+tvHa4RajcTbn0aQz12FmwQax5gWFfQj/aqutZpJ6/gdHgmuhTUYZYQS8eRlya/XN9aD/w4yvavg9BcFFiHMQlCJMUysDK0LIJKsYEUhrPPIAMnaD2D6yqIXFUUYTiTaHhxkPrDQlLXyiarMN9eezOHaamN0YgYxgmpC22IBPpRiEITbuspzE2X3NizhjZmFsilk8iB9kbHIhfxBnt40zZldcN7bApgw03HxpIj+nYAKx00476VOQV/JEc41gh4y7OATvH5TpJ7yAQ3Qhr0RuZB8bcqOh5T8aW/KAKE+ZMkWxKJLyWNBovH7grYJ7EWy+MR8hCuTqq6+e50oPLTD3GuJMejxZeEUTdBNncMCsgzLZUBZgxsE+v5H27dv7NVOXd9BBB2lsnGWbG+gPFBMQaEw0MOcIK2HGFy8etKfaRYhzwj1cDRN1wpBJcTEikMZ45GHao0cPvdrbEGWayIOJhwTaFhtIM3VKA58ou9uG+tOfaNF4OTICYXIGxDDnk/5vAz6VtjkMsXGXZYgzi+eIRsjiQLOh7cSNmzkm6hwkmAVr/G7RbqJJxieyMdV4++23/3975wE0RZGG4QMEVPAUBEUk+eOpKJjlUJKIcCYQM0ZUDIh4BtAfA8GAh1JKECPRjOkwAiomDIgJlWhCC0yoKIoI3Gn11dvnLLMzs/vvzHaa3bertnanZ6an++ne2Xd7vv4+mYeALBCnmDGGr2FPsMLVHQQqRCwiJ8KUwD/zjBlgzL4iwT4YHkU8EwnM3sJkBAmu4VDnqITZb/zxhiBGPavyJAGbbC/BdMz/dATmYl4QGAhm1B+mDl6gEe88eDiBcPb+VHj5Ue9B4QyXdt5MNo7Hvc9zR4f8qKAvaBdm5PEnA+1FHbEWBH6wkdCXCK6CfDy9g5hF/WBug4WIWFhZaCpmfBV6jbQdR+FsuMdK4UZtGBkvp5GA6fGIlfGwYYZ3mWDCjw8e0+IGj5s1fhj8P2rB401sm+ajuk226w9f3XjUHAz1C1GEhWiYlbOZbPNR0fZihI0nnGFqgKAliObnvWAT26hRo8y2l4/Z1eCiN084+2ecEdwETxoQjhwJYg9rFrD4MVeCLbQ/CiLuB5h9RYLrPIhsiL499tgjVxGZp1beAVjYhz9psGUOvnAvQqhsBIEJJgjWYHhtzGBjRjjo4QOzubhvRc0wB8uFcL711lvlfRD231jMiGuBF16wcYZNND6jT/A9ges/L6H9CMYCEV9RUSEjUWKmHn9S8ELf4PsGm3Dk44U/KbCVxpMeT1x75VX1Xsz4qqrstO6ncDbcc6VwozaMjJfTSMD2eMSPAwI/4OYMGz2sqoeYgu0zFu5gsRIWDuIHFz8KmJHCD7CpZJtPse20XX8EZYDXgKiEH3AIkSSPj6PKS5Jnm0+SOgfPKUbYeMI5WCa2ISY9V3JR+/15UcLZW9zrLbyDVw6IVG8G13++9xlt8ZtvBIUrjoMI9NsXe+fmeoc9PUQmRH3wBQEMwfuvf/0r1+mZfNx3UA6iEQZDV0Poohy/wM2c+OcH2BzDNRyevnTs2FH+IcGMMkxGsGgQdcCrdu3aUuB623j3zxB7fzaxmBr3TC9BTHs21VgAiu+Wl+DLGSYbSVIx4yvJ9dJwDoWz4V4qFxsgw1h5uYQETAsHhM6FUEZoWNzk4RsV9opLly6NbAEikMHWEqvB8YNpOpnmo7p9NuuPWTU8Ss4ljCFEYA4AG01bTxZs8snV15hVhRCFHXAhKamwgalFkyZNxCWXXBJ5Gfx5halGISlKOGOGGAIOniPg+g2iGWY7ftMMf9lYvIdFd7nGC46F2UH37t39p0khns9EAnxy3TtgFwzBG4w8mHWBPzdghwwzFXjK8BbwwYMIEkwrPJOS4LngjHPhwQQz+HiSli/5TTXyHUfhnI+O3n0Uznr5snQScJqAaeGAGZlCHme6As00H9XttlV/2FfCDhX27PkSBBdcc+Ex8vjx4wX+WJlMtvjka6O3KC5qtjXqvLjCGTO+cF+Gx/z4Uwo7ZTwVCM4Ew2RixIgRUZfMiF9vNhlmHBCgUX+AsDgPYwFCHE+PIMbxZzkodjGziomlfAmi9b333ssc4i0yxExw0HzEOwgLCvHkA2Mr+PKCMEGE5kooFzbaiHro2SLDrhsCHk/EmjZtKg4//HBpYoJZephGIHofyoRbPnwHsB+co0zUgtcNCmf480bo8GDCdXBtz34cM8reQkaYasBMxtuHuiJiY5IUd3wluUbazqFwTluPsb6pJQCXQflu0DYa5qJwsMEh1zXTzsdG/WfPni0fRcMNFhZ8QnzlesHeE2IDM3kQXhDQnk1srj5RmW+DT1X11y2cIa4gYL1H/qgPzGZgloFFZLAzhkiEjTMe/+O+hSdDEKcI64wFvHBdhwRfyJ07d5ZeJlCmlyA2YV4ATxiY7fX+EGEWGrPP6Gv/zDFmknEteJKAwMTsrSf6/O+ol3970KBBsr6oM8R7VIKtL2yi8ccs+MIfB9TFHxbcXwaeeOGpiN98xL8ff/zwZAWu7LAIEosZUR5eEK7ejHTUAj/UF+73wN7/wmw22uXlwYc07J69srzrQ5T7PYv0798/E7wGdYLg9RJm1LEgO0micA5To3AOM2EOCWgh4OINyEXhoAV+wkLTzsd0/eE3Fx4TMBOIx+AQZ/gMO07MNMKmHbOUeMF7AQSGFxkSs40QYiaTaT6FtE23cAb3KJEJcTdt2jQpTOE5AgIWf2ggdCGW4XoO70E7XtgNQzTCbRy8agwbNkyKbcwg5/KzjBlZzEB7CdH/cplweMckfYefZtgWRyW0GTO1QZtlHAsPG/BJ7c0yR50fzIMdM8Y8TDeCLviCx8IkBe7tIL49V3T53oPu5vDHxPsDg7L9frIRaRHjyEtRwt3bV9W7i79bVdVZ934KZ92EWT4J/EnAxRuQi8LBpQGTdj6m659rthizlZi58ydvYZZ/4ZN/v4nPpvkU0ibdwrmQOiQ9xuTC3aR15HnxCMT53YIpil+wx7tSeo6mcE5PX7GmKScQ5wZkqqkuCgdTbS/kOmnn40L9MZOIhWHB2WTMtmHGGTNutpILfIJtT7NwDraF2+knEOd3y8Xvk44eoHDWQZVlkkAEgTg3oIjTtWSVy40uKby083Gh/vBFiwVPwcfFsO+ETaj/EXPSfkp6ngt8gnWncA4S4bZNAnF+t1z8PulgR+GsgyrLJIEIAnFuQBGna8kqlxtdUnhp52O7/lgk1q5dO4FAD8EEW2h4W7CZbPOJajuFcxQV5tkiEOd3y8Xvkw5uFM46qOYps1xsgPIgKNtdcW5ApiCVy40uKc+087Fdf6z8b9asmVwUGOwDhF7u1atXMNvoNvjA64JLCR4o4CoO0fwKSS7eVwqpN49JB4E448v2/cYUUQpnU6T/vE65DCzDWFNxuTg3IFMNSst4tLXoKC18co0Xm/XHoj/4jkVIYSQEgkB94GMWAXBg3wxhbTPdeOON0lykR48eAgE40phcvK+kkSPrHE0gzviyeb+Jrr2eXApnPVxzllouAysngDLeAT+cK1ascIqAzfEIf6zgAQf/Vb0gbAqJ7qUark0+Ktpio/5w3zVmzBjp2/aHH37Iagbc0cGPMEQzAlPAr6/NBD5wk9bJdv8AACAASURBVIdAEni9/vrrNquT6NpxhE2iC/CksiYQZ3zZuN/Y6BwKZ8PUy2VgGcbKyyUkYHM8YsEYfMSOGjUq84JA3myzzTLb3j4Eyqhdu7aYO3duwpYmO80mn2Q1zj7LdP3hnxlBJhYuXJhdEd8W/NsiMAr8CdtOHh8I/COOOELOPsP/sK0nHEl4xBE2ScrnOeVNIM748r5PpU6MwtlwD5fLwDKMlZdLSMDmeGzYsKG47rrrsmqOSF4QycGE2UAIGtPJJh8VbU17/VUwyFeGnw/EMsZfzZo15R+6qsKF5yvX5L44wsZkvXit0iAQZ3whiBGiT5Z6onA23MP+G7XhS/NyJBAiYHM8xhXONsKV2+QT6qwEGWmvf4Imxzolis+8efPk4jyETJ41a1as8mwcHEfY2Kgfr5luAhxf4f6jcA4z0ZoTdaPWekEWTgJ5CNgcjxTOeTpG0S6b/auoCVqLycUHZiQnnXSSqFatmhg4cKAMEa61IkUUTmFTBDyeWiUBjq8wIgrnMBOtOblu1FovysJJIAcBm+MRwrlz584CiwS9V9euXcWmm26a2fbyYQ/NGeccnZgn22b/5qmWM7uq4jN16lRRt25dsffeewvYZruYKGxc7JXSqRPHV7gvKZzDTLTmlIsNkFaILFwZgaqEg7ILRRRUr169WDbOFM4REKvIstm/VVTNid2F8Pn4448FfE7XqVNHINqh7oQQ5QhDvn79+oIuRWFTECYelJAAx1cYHIVzmAlzSKBsCBQiHHTBwMxynMWBN998s66q5CzXJp+clYqxI+31j9HURIcWygdhwQcPHiyqV68uevbsKb777rtE1yvkJEYOLIQSjzFFgMI5TJrCOcyEOSSghUCfPn2smBvkagxm0tq2bSsfRec6Rlc+PBjAly+Fsy7C/y+3UGGotxbulh6XzyuvvCKaN28usHBwxowZWhpG4awFKwtNSIDCOQyOwjnMhDkkoIWAKzcghPI95phj5MIniNcttthCS3vzFfrbb79J4Qw/zp4dM97z2Thzxjkf0eh9cYVhdCmlm5uEz+rVq8XJJ58sx+95550nfv31V6WAKJyV4mRhRRJw5XeryGYoPZ3CWSlOFkYCuQnYvgG99tpronv37vIHf5NNNpHvePTcuHHj3JXWtOeLL76Q14eI96d8fpxp4+wnVdjnJMKwsJJL46hi+EybNk3Ur19ftGzZUuC7pSpROKsiyXJUEIjzu4U/lRi/pZ4onEu9hy22b8GCBeLAAw/MCmN76aWXir59+2ZqFXVMZmeJfYhzA1LZ9JkzZ4p27dplCWbMNCPQQ/v27WWoYZXXK6SsZ599NlKwQ8jkCoBC4VwI2exjihGG2SXF23r++efF/PnzqzwJP7R33XWX6NSpk1LxWeWF/zygWD4IGX7YYYdJ2+fLLrus4AV9+eqXRDh37NhRjBw5ki8yUD4GEHwKLhkLScV+nwq5hgvHUDi70AslWgfMyECg3XLLLZkW7rLLLmKbbbYRv//+u8yLOiZzcIl9MCmc//jjD/Hwww+L1q1byz6oUaOGfEd/eC/kXXXVVVaE87hx48QZZ5wR6mFEB6RwDmFJnGHrh+ydd96Rf8xgegMvEQ8++KB4+eWXZTs+//xzcccdd4hevXpJ14N44oHjLrjggsTtTHqiKj7wlgSTJ3zf0PZiUlzhPGDAABmwpaKigu9koGUMwC1jIUnV96mQa9k8hsLZJv0yuPby5cuzWrlmzRrx448/ZuUFj8naWUIbJoQzVv9PmjRJtGjRQgpkmGJ4Qtn/jtnms88+W9i60R100EFS2Ae79+qrrxbw2RxMmPXgjHOQStXbtvoXNcPCT4w5CEGY4MCLCsTxxRdfLGeZX3311dC9oOoWqT1CJR/8IejSpYvAH9LLL7888exzXOGslghLI4HkBFR+n5LXQv+ZFM76GWddoVxsgLIazQ1JQLdwhu/XRo0ayUV/iHjmF8rBzxDU+KG3caNDIIkjjzxSzkQGhwZcfm222WYy+6GHHhLXXnutGDZsmJy9NOFDN1gfG3yCdShm22b98VQJM80//PCD7EfMiAYTvKs88MADYueddxbPPPNMcLf2bdV80J7bbrtNeqpp1aqVePPNN2O34auvvpKzhkH7/9gF8QQSMExA9ffJcPULvhyFc8Go1BxYLgNLDa3SKkW3cIZA2WGHHYS38C8olr1tzDafdtppEq7p8YjH9kOGDBHr1q2L7FzMSEJweAl/BrbffntRu3ZtAXt408k0H9XtM13/p556SnpJ+eabbzJNmTJlihg7dqyAmRbE9Jlnninee+89ceONN8q+hktEzEJPnjw5c46pD7r4YPFrt27d5Owz7EPXrl1rqkm8DglYI6Dr+2StQTkuTOGcA4yu7HIZWLr4pbncJUuWiBUrVmhtAmar4Gc2n3jGbDR8OCOZHo9vvfWW+OWXX3IyWLhwoVi1alXWfsxEzp49OyvP1IZpPqrbZbr+mHGFuQLMbT799FPZl7BnhyvBPffcUzYPY7OyslLONKN+NpNuPrB9hs0+/tBiQSwTCZQyAd3fJ1fYUTgb7olyGViGsfJyPgIQ582aNYsUz5ht7t27d+ZojscMisgPaedjo/6w0YVwhlAcOnSotHG+4YYbpAcXQIat80svvST/vGGmGQmCe9CgQcY9a5jgA88bxx57rDSdOvXUU8X3338fOdaYSQJpJ2Di++QCIwpnw71QLgPLMFZezkcAIgQr7WHvHDXzvGjRoszRHI8ZFJEf0s7HVv0x24xFwEcddZTkCgGNYDdIsGGHcIY5w/HHHy/NGPBep04dgYAiJpNJPk888YRo0qSJaNCggYD5Cr6nTCRQSgTwhKVDhw6l1KTItlA4R2LRl2nyRq2vFSzZVQKwIYX9cq1ateSPM+yDPfGMd0/IePXnePRIRL+nnY/N+kMs33PPPRLshRdemHnS4QlnzLxiUSAWio4aNUr89NNP0Z2gMdc0H5gp4U8tFufC97INu32NOFk0CZQFAQpnw91s+kZtuHm8nEUCcEV33HHHyRm9WbNmyZrAcwb85Hpu6YIr9Tke83dY2vnYqj9E8HbbbZdZFIc/c//85z8lbE84YwM+3bGo1Vayxefdd98V++23n/xTCxMV1WG7bfHkdUmgHAhQOBvuZVs3asPN5OUME4CXisMPP1wGYXjllVeyrr5s2TJptoH9wcTxGCSSvZ12Pqbrv379emnDe+6550ph6NFEZEAsEETyC2d4mkHQG1vJNB9/OxGk6Pbbbxf16tWTJhxwy8dEAiTgPgEKZ8N9VC42QIaxlvXl8PgXoc3xA5zLbyxmAKNmtWwKhzR0Wtr5mK7/zz//LHr06CEXwvkjQ+KpxxtvvCG73C+cEfAG+/C0xEYyzSeqjd99953o27evfCoE+1B4noEbRvwJYSIBEnCPAIWze33CGpFAwQTwmBuPfLEQ8MMPPyz4PO9AF4SDVxcX39POx0b9IQTh8hDRApEgAuFlwxPHfuEMDzCItGfDhzPqZoNPrnGOUN0HHHCAZAef6zNmzMh1KPNJgAQsEqBwtgifly4vAn369FEaNho+m3fbbTcZXvuTTz5JBNMl4ZCoAZpPSjsfG/VHkBsI5+nTp8veQfTHyy67LNNTfuGMxXEIT408G36ObfDJgIj4AE8bCC0P4bz55pvLiIsMnhIBilkkYJEAhbNF+Lx0eRFQGTkQQrlFixYy8tqXX36ZGKQrwgG+bvMl2IPaSK7wSdp2G/VHoB8IP9jsLl++XOy6664Z38W//fabFNX9+/eXruhgWoSZaDw1gSeY4cOHiw0bNiRtbuzzbPCpqpLwgw1+55xzjlyzAM84mJGv6jsAF4CI3MhEAiSglwCFs16+LJ0EMgRUCWeEK4Y3AoiNYj0S2BQOEAKPPfaYaNeunahbt67An4Gzzz5b2nhCfHmvxYsXi86dO2cWl2WAGvhgk4+K5tmo/wsvvCCF3y233CKOOOII8cEHH2SaMmnSJLnvlFNOyYogCfMOhOTea6+9jIo/G3wyMHJ88IQz/lSsXLlS+raGK8k2bdqImTNn5jhLiIMOOkiyve2223Iewx0koJPA6tWrZcAjnddwoWwKZxd6gXUoCwIqhDMCR8BetFu3bmLNmjVFczMtHLCQ8d///rc466yzpCcBzKzBA8PEiRNlQAwEiMBM27333pv1gmuznj17VjnrVjSQQAGm+QQuX/SmjfrDVAPBPuC7GbOg/oQFqlOnTvVnZT5jYaHJ2WZc2AafTINzfPALZ++QpUuXSn/X+L7A//OcOXO8XfIdCwqxz3tRPGfh4YYhAi5+n3Q0ncJZB1WWSQIRBIoVzo8++qioXbu2fMStSmCYvtHNnTtXev6AfTb+BOCH3h9BrXnz5pHCCoEy8BjfdDLNR3X7bNbfWwyouk0qy7PJJ1c7ooSzdyw8k3gzy4jE+Pbbb8tdmNn3Ah1RPHu0+G6agIvfJx0MKJx1UGWZJBBBoBjhPH78eOmuClHHqrJ1jLh0ziybNzr4m/aEs+d6K59wHjZsWM526Nphk4+KNqW9/ioY5CvDRT75hLPXFpjDwMQJ35+uXbtmZpo90ey9c+bZI8Z3EwRc/D7paDeFsw6qecosFxugPAjKdldS4XzFFVfIH8brr79eOTuTNzrMLMPeFe7JENFw2rRpsl2w2d5xxx0FoqnBVAMCGa65/C8I6srKSuXtr6pAk3yqqkuS/Wmvf5I2xznHRT54GlNRUSGCUT6j2vXkk0+K+vXrh2abPeGMd4rnKHLM00HAxe+TjnZSOOugmqfMchlYeRCU7a64whmPuuHCDo9gp0yZooWb6fGIdowdO1a255BDDpHCGR4DkA+7zS233FLaxsIO2v9CkAwsNjOdTPNR3b601181j2B5aefz8ccfZ/w++8Vy8DPFc7Dnua2DQNq/T4UyoXAulJSi48plYCnCVVLFwEsEAj4UkrBQ6uCDD5beJvKtpC+krHzH2ByPO+20kxTOfhtn+Pz98ccfQ1XG42u4NoM7M5PJJh8V7Ux7/VUwyFdG2vmcfvrpombNmvJ7FBTLwW2E92YiAZ0E0v59KpQNhXOhpBQdVy4DSxGusiwGfpl33313AU8SMGPQmWyNRyxy8n7YBw8eLFatWiXmzZsnXdHBZCP4wiIouOM64YQTdOIIlW2LT6giCTPSXv+EzS74tDTzwZ9JRF30vkeFvFM8Fzw0eGACAmn+PsVpLoVzHFoKji2XgaUAVVkWMX/+fIGABwgagR9G3cnWeIQLOs87AKLKtWzZUrz88svSowZcmeEFITBo0CD52cuDTadJbw22+Kjq97TXXxWHXOWkmc+IESPkdwSmXAgeg2iNFM+5epr5JghMmDBBdOjQwcSlrF6Dwtkw/jTfqA2jKrvLIeoXAoFglfxPP/1kpP02xiN8OSNUOExQ8EOPIC4NGjQIBXPBPiwg9JLfpMPL0/1ug4/KNqW9/ipZRJWVZj64R9x1112iR48e0rcznsjgTzfuIUERjZlp/+z0McccI0aOHMkXGRQ0BsaMGSM8z0dR36Nyy6NwNtzjab5RG0ZVVpfDgrnq1auLvn37lvyMKmaY77nnHuF3R7du3bpQf/uFMwKiwBWf6ZT272va66+7v9PO56abbpKCGF44/K8ddthBNGvWTGBRLaKMwvMGAidtvvnmcnZ6iy22yDrefy4/Z7Msdx4YR7gXw5SO6f8EKJwNj4S036gN4yr5yyHKWr9+/eQMEWaATCfT4xFhtU877TTZTL9wRsayZcvEiSeeKAOdYJEgbtbHH3+8wOcjjzxSIODDggULjCIyzUd142zVHxEC/cm/qBOmNnDL6U9wUWgj2eKjqq1pr78qDixHH4FC/Irru7qbJVM4G+6XcrEBMow1lZfDgjjY+dapU0e6XrPRCNM/vPBJ7YmqoHAOtt8/4xzcZ2rbNB/V7bJV/0mTJkmvMLDDxeuAAw6Qf4rQPvR/w4YNxVVXXSX3YUzAThdh100nW3zytRN/pvFHopBH4y7WP1/buC99BCicw31G4RxmwhwS0E4ArukQ9AOPwbAg0FYy/cMLN3tewmJAiOPff//dy8p6p3DOwpFow3T/epV88MEHRatWraRIhlBGSGgsCEVC5Ev0LTylYN8333wjt9966y3vdGPvtvjka2AcoeJi/fO1jfvSRyDOeExf65LVmMI5GTeeRQKxCSCYyejRowU8Q8DecP/99xfffvtt7HJUnmDzh/fFF1+UginKvhltDApnBEnB7KTJZJOPinbaqj+EMxaAeqlXr15i6NChctMTzosWLZLbWCyKvoYZj+lki0++dsYRKi7WP1/buC99BOKMx/S1LlmNKZyTceNZJBCbQNu2bUX79u2lPTMWAW7YsCF2GapPsPnD+9xzz0nBBOF05ZVXiosuukjaM8OmGS94F7ngggsyeYcddph8/G/SHtYmHxV9bav+EM4777yz+P777+Xr0EMPzYRMhwkChDKeOHz99dcC0e+wvXjxYhVNjlWGLT75KhlHqLhY/3xt4770EYgzHtPXumQ1pnBOxo1nkUAsAjBRqFevnvScMX78+Fjn6jzY5g8vgrtcc801woabuUKZ2uRTaB3zHWer/nfffbfYdtttxQ033CBfrVu3Fgi+gdDPK1euFC1atBBwcYUw6qNGjZKeHjjj/P+ejCNUbPVvvjHHfaVFIM54xKJfHF/qicK51HuY7bNOAJ4gEF4aoXFNR76rqvH84c1PKO18bNX//vvvF0OGDMnAxR9H+ByGy8XHHntMhp4///zz5aJY/HH66KOPctq6ZwrR8MEWn3xNiSNUXKx/vrZxX/oIcDyG+4zCOcyEOSSgjMB9990nfacimtJee+0lBg4cqKxsFQXxhzc/xbTzcaX+WASIEPLwO+yl1157TXTp0kVuwnyjU6dO0re3t9/Euyt8/G2lUPHT4GfbBDgewz1A4RxmwhwSKJoAhMB5550nbTcvueQSARdTf//73ymciyZrtgAXhVUcAqbr/+677wosBKysrJQLObGY8/LLL5f2zohsh8/IO+OMM8Tpp5+eOQa27PDVfdZZZ0mvG3HaWMyxpvkUUlcKlUIo8RhTBDgew6QpnMNMtOaUiw2QVoiOF47Hznvuuaf0nPHII49kakvhnEGRmg8uCqs48GzXH38Y4U0Gs8lr167NVB1BUOCiDrbQNpNtPlFt/+qrr2RUv/fffz9qd1aei/XPqiA3Uk+AwjnchRTOYSZac3ij04rXeuEIJV23bl2x7777yiAG/gpROPtppONz2r+vNuu/Zs0accghh4ijjjpK4HMwwX8zzJcgoBEMB+YcppNNPiramvb6q2DAMvQSoHAO86VwDjPRmsMbnVa81gqHMEAo6WrVqgmYZmBGLZgQ9GTFihXBbKvbHI/58aedj436Y7EfbPv33ntvgQiCcEkH7xrww400ffp0gScxyF++fLmA/T/c0dWoUUP+4YR/b1PJBh+VbUt7/VWyYFl6CFA4h7lSOIeZaM3hjU4rXiuFv/nmmzIKYIMGDcTTTz9tpQ5JL8rxmJ9c2vmYrj9Eb79+/QR8bldUVIibb75ZvhByGy9EiURo7caNG2f2HX300QLfHfg298R1/l5Rt9c0H3U1/39Jaa+/ah4sTz0BCucwUwrnMBOtObzRacVrtHCIgOHDh4tNNtlE/OMf/5DBHIxWQMHFOB7zQ0w7H9P1RzATJETIhF2zlyCmzznnHLk5efJkuQbA2wdfzjDZsJFM81HdxrTXXzUPlqeeQBzhPGHCBPkESX0t3CqRwtlwf/BGZxi4pst9+umnMmT2pptuKsaOHet0EI98CDge89ERIu18bNWfwjn/uFK111b/qqo/y3GfQBzh7H5r1NSQwlkNx4JL4Y2uYFTOHnjHHXfIBYB77LGHWLhwobP1LKRiro3Hp556SsyaNcuZPyKu8SmkT/3H2Ko/TDSaNm2acTeHGWWsAUCCqQaiCsItHV7du3cXu+66q7/axj7b4qOqgWmvvyoOLEcfAQrnMFsK5zATrTm80WnFq7VwLOzDjzwWMQ0ePFhs2LBB6/VMFO7aeIRnBdi/wvTFheQan7hMbNV/5MiRmeAmqHP//v3l7D0+33rrrdKnudcWmGr07t3b2zT6bouPqkamvf6qOLAcfQQonMNsKZzDTLTmlIsNEFbWw5zhmWeekYuAMLOEIAdYADRgwAApPEeNGiWeeOIJsXTpUivhduN09NSpU8WWW24pAznMnTs3zqlOH2vrh/ell14SP/zwQyQbhGs+5phjQvtOPvlkGa45tENjhi0+qppkq/5YJDh//vxMM/xeZhYtWiTwY+yl3377zfto/N0Wn3wNhe/rzz77TCCIUlXJxfpXVWfuTxcBCudwf1E4h5kwJyGBVatWiTvvvFMce+yxcpU8XEzh1ahRI7kYqGPHjnImEYuG8Oi2SZMm0n0bjoEo7dmzp7QX/vrrrxPWQP1pCEbQo0cPWc+LLrpI2PyRV986eza8V155pRwXQ4cOFYW8MGO54447CpjHrFy5UgeKyDLTLkzSXv/ITlGY6SKfOELFxfor7B4W5QCBOOPRgeoaqQKFsxHMpX2R2bNnyyAHtWrVEnXq1BGHH364uOmmm8S8efPEzz//nLfxeDSPML14XItACRDQMIXAo/rHH3/cqq0rng6gPhBsCNBQbEIENSyacinZ+uG9+uqrxU477VQwildffbXgY1UeaIuPqjakvf6qOOQqx0U+cYSKi/XPxZr56SQQZzyms4Xxa03hHJ8Zz/iTwLPPPivatWsnZ5UPPPBAGT43KkJYHGB4PPnwww9LP7AIJtKmTRsZLCFOGcUeu2zZMtG1a1cp4AcOHKhslpmRAzf2jF8447H+CSecIIYMGRI5+3zooYfKMQbvJaZT2oVJ2uuvu79d5BNHqLhYf919xvLNEogzHs3WzN7VKJztsU/tlRHtC0ELYGKBcLkIAKIjLViwQJx44onSTAJCFrbQOtMff/whZ4Qxa966dWs5Y67yehTOG2n6hbOXC7/YsIv3p+uvv160bNlSDBo0SOCPmumUdmGS9vrr7m8X+cQRKi7WX3efsXyzBOKMx9WrV2etXzBbU3NXo3A2x7okrjRt2jSxxRZbiL/97W/GhAwW48Emunbt2nJFvg6QWMi03377CZibDBs2TIvHDArnjT0XJZyxF8Ex8KcFnhcuvPBC+UfGv7BsYwlmPqVdmKS9/rp72UU+cYSKi/XX3Wcs3ywBjscwbwrnMBPmRBDASu/zzjtPzjLDO0YhK74jikmchdlICNrq1auL4447Tpn5xNq1a+VsJqL/tW/fXmDFv65E4byRLPpyl1122Zjh+/TCCy/IaIxz5szx5QqB2QzTizPTLkzSXv+sAaBhw0U+FCoaOppFJibA8RhGR+EcZsKcAAGISyz4gwnDo48+GthrdhOiauuttxYHHHCA+PHHH4u6+IwZM0SLFi3EVlttJb2BwIWezkThvJFuZWWlnOGHO8Jx48aJ2267Let10kknSQ8r/vwuXbqIbt26iXXr1m0sSPMnF4VVnCanvf5x2prkWBf5UKgk6Umeo4sAx2OYLIVzmInWnLTZAGGGr0OHDlKswkuGC2nJkiWiWbNm8pE+XODFTV9++aWctYaN9vHHHy+++eabuEUkOp7CeSM2PLWA3TpcD77zzjsCwWW818yZM+WTDdg0e3nvv/++9HACV4cfffTRxoI0f3JRWMVpctrrH6etSY51kQ9cYFZUVAiM+aqSi/Wvqs7cny4CFM7h/qJwDjPRmpOmGx3MMzDTjBnexYsXa+USt3AIqubNm0uvHpgRLyShPXCTV7duXbngDALNZKJw3kgbgXCigpzgCLgnxJ8av3CAD20uDtzIr9BPabrfFNomlcelnU/a66+yL1mWHgIUzmGuFM5hJlpz0nSjQ9AJmGfo8ppRLGh42WjQoIH0/1xVWfADDNd2WGCIgBsmH/d7dcNMOQS/S8nWeITJBRYIRqWgcIYJzYcffhh1qPY8W3xUNSzt9VfFIVc5aeeT9vrn6hdV+fDMBFepr7/+eqbIqLxLL71URrXNHMQPGQIUzhkUmQ8UzhkUZj6k5Ub30EMPyVk/2zbNVfUKFpAhYMqYMWMiD/3222/F6aefLl3aIajKJ598EnlcuWbaGo/bbbedQNjtqBQUzlHHmMqzxUdV+9Jef1UccpWTdj5pr3+uflGVDy9QeHqFAFteisrDQuVtttlGYBE6UzYBCudsHtiicA4z0ZqThhsdZkX/+te/igEDBmhloarwESNGSDdy/llJmGUgSh8i/zVt2tR4EBVVbdNdjo3xiJl32HBu2LAhsnkUzpFYEmXa6N9EFbV0Utr5pL3+JrodcQeCKZiHwF3FLjYPXqNUtuMIZ0TbxZqoUk8UzoZ7OA03OtieIsy0aZdzSbsCj/JhPwx3cvgMzxu77babNMu48sorRaE20Emvn+bzbIzH888/X4ZTz8UNkQQxS/TBBx/kOsRYvg0+KhsHm348kdlhhx34imBQv359uVZCJXOTZaV9fJpkxWslIxBHOCe7QvrOonA23Geu3+ief/55KVpmzZplmExxl3vvvfekQEAkQ4guvAej0BV3hdI82/R4XLhwobj88ssjYcI1Xb9+/USTJk1kH8LMxnYyzUd1ezGzdsMNN4iRI0fylYPB448/rhq7sfLSPj6NgeKFEhOgcA6jo3AOM9Ga4/qNDv6RDzvsMK0MdBUOTw3bb7+9ePLJJ3VdouTKNT0ep0+fLp8K5AKJRZuwN7zxxhtzHWI03zQfo43jxVJPgOMz9V3ofAMonMNdROEcZqI1x2UbICzWwmztG2+8oZWBrsIxw4zH0vfff7+uS5RcuS7+8NoMsR3sYBf5BOvI7dIigPUZn332WUGmchyfpdX3LraGwjncKxTOYSZlmwPb5o4dO6a6/QhogllzpsII8Ic3PyfyL+9TfwAADUdJREFUyc+He9UTiCNUOD7V82eJ2QTijMfsM0t3i8K5dPs2Vsuwohg+jidPnhzrPNcOhm02Zs1dtG/u06eP9PThEjP+8ObvDfLJz4d71ROII1Q4PtXzZ4nZBOKMx+wzS3eLwrl0+zZWyyZOnCg222wz8csvv8Q6z7WD4YezUaNG4tprr3WtatLzx8CBA52qF39483cH+eTnw73qCcQRKhyf6vmzxGwCccZj9pmlu0XhXLp9G6tlJ5xwgjjkkENinePqwWeccYbo1KmTc9VjyG3nuqTKClGYVImIBygmEEeocHwqhs/iQgTijMfVq1cLHF/qicK51Hu4wPYhapIuTwbPPvuseOCBB+QLbuOC6aeffsrs944rxhn9vffeKwOiuOa/mcI52PPub1OYuN9HpVbDOEKF47PUet+99nA8hvuEwjnMpOxyPv/8c2kX/Prrr2tp+6+//iqGDh0qr4FIfh999FHWdRC0BNHi2rRpI3bddVcZihl5SZPXHte8g1A4J+1Re+dRmNhjX65XplAp1553s90cj+F+oXAOMym7HG9BXTGzvIVAq1WrlhTPrVq1irSlvu6668TVV19dSFF5j4Hohr32lClT8h5neieFs2nixV+Pwrl4hiwhHgEKlXi8eLReAhyPYb4UzmEmWnNctAEaN26caNiwodZ2o3DMJnfv3l2K5169eoUCYdx+++0CdVGRdt9995wR6lSUn6QMCuck1OyeQ+Fsl385Xv2rr74SFRUV4v3336+y+RyfVSLiAUUSoHAOA6RwDjPRmuPijQ5mFK1bty663ZjpRRCV0aNHSwH83HPPZZUJMYtZ7ZYtW0rxfM0112Ttv/POO8X48eOz8pJuQKCfddZZSU/Xch6FsxasWgt18fuqtcEsPFUEOD5T1V2prCyFc7jbKJzDTLTmuHiju/jii8X+++9fdLuvuOIKgciISG+//bZo27ZtVpkQzkgLFiwQdevWFdWqVRNPPfVU5hiVwvnoo48W8BTiUlqyZIlYsWKFS1USLo5HlwCRj0u9wboECXB8BolwWzUBCucwUQrnMBOtOS7e6M455xzRtWvXotqN2eYGDRrIGWevINgs+5MnnJH32GOPSeHsXyyoUjifcsopokePHv7L83MEAYxH9NvDDz/MVwSDU089VTRt2jSCHLNIwD4BF39P7FNhDVQSoHAO06RwDjPRmuPije6iiy5SEqa6ffv2Am7tHn/8cclw/fr1WSz9whk7rrrqqqzFgiqFM8KHuzbjnAXDkY37779f/oFBtEW+ohm0a9fOkd5iNUggm4CLvyfZNeRW2gnEEc544tyhQ4e0N7nK+lM4V4lI7QEu3uiGDBkiXcEV29L58+eLHXfcUQowzGB/++23WUUGhTNmqTErDMGGxYJ33HGHUhvnvn37Zl2fGyRAAiRQSgTwe7LVVluJkSNH8kUGWsbA4MGD5W/0m2++WUpfnaLaQuFcFL74J7sonMeMGSO23Xbb+I2JOAMhu/v37y9q1KghGjduLFatWpU5KiicsePnn38Wu+yyi/xiwk2dqsWBe+65p6isrMxcmx9IgARIoNQIPPPMM3KxNbxw8EUGusYAfptdW59j87tM4WyYvovCecaMGVK4wlVe0gSzjHvuuSdzOnxDY/Gft1gQs8uYjY5KS5cuFbB1xsyzCuGMa9WpU0dMnDgx6nLMIwESIAESIAESIIFEBCicE2FLfpKLNkCfffZZ0Y9i1q1bJ+2kIVqR8A7f0NOnT5fb8E2KoCQ4Lio9/fTTonr16kqE8/Lly2V7Xn311ahLMY8ESIAEnCXw3//+V+CeHFwj4myFWTESKDMCFM5l1uFRzYXI3XrrrcXNN98ctbugPAji7bbbTvTu3Vs88sgjYtSoUTLMNk7GdqdOnaSY7datm3jxxRcjyxwxYoQS4fzggw+KTTbZRKxZsybyOswkARIgAVcJxFmM5WobWC8SKGUCFM6l3Lsx2gYvFEcccUSMM8KHYqZkw4YNAjf+pGnlypVJT82cd/bZZyvxS50pUNGHPn36yOAwiopjMSRAAiVIgMK5BDuVTSopAhTOJdWdyRuDcNcISrJ27drkhThwJmbP4XcXnkJcSy5GDnSNEetDAuVOgMK53EcA2+86AQpn13vIUP2+++47ad4Av75pTjADwSLDxYsXO9cMCmfnuoQVIgHnCFA4O9clrFCBBOBgoJgnzgVexvphFM7Wu8CdCsCn8sEHH+xOhRLU5LTTThP77rtvgjP1n0LhrJ8xr0ACaSdA4Zz2Hizf+rvoNUxHb1A466Ca0jI9t3TvvvtuKlsAbxo1a9YUkyZNcrL+FM5OdgsrRQJOEaBwdqo7WJkYBCicY8DioaVDYO+99xZHH310Khs0YMAA0axZM/Gf//zHyfpTODvZLawUCThFgMLZqe5gZWIQoHCOAYuHFk7AdRugJ554QtoIz5kzp/BGOXAkbJox24yw3a4mCmdXe4b1IgF3CMDnff369WVE1X322UcsWLAgb+XgrQfH5XrxfPLLN4BUjp8mTZrIyat81yuFfTTVMNyLafhHduihh4rWrVsLuJdLS+rSpYv84fjjjz+crTKFs7Ndw4qRgFMEMHFRWVkpXzBBy5cQbdU7Nuqd55OfyfFz991357tcSeyjcDbcjWkQzp9++qmM8jd48GDDdJJdbty4caJGjRpi3rx5yQowdNaSJUvEihUrDF2NlyEBEiABEiABElBNgMJZNdEqykuDcEYTJk6cKKpVqyZmzpxZRYvs7n7nnXdErVq1xLXXXmu3Irw6CZAACZAACZBAyROgcDbcxWkRzsByyimniK222qpKGzvDCDOXwyKa7bffXiCMt8smGpkK8wMJkAAJkAAJkECqCVA4G+6+NAnn9evXi86dO4vGjRuLzz//3DCp/Jf7/vvv5eKZ3XffXWDBJRMJkAAJkAAJkAAJ6CZA4aybcKD8NAlnVB2idK+99pIzuwsXLgy0xs4mZpp33nlnUVFRIb7++ms7leBVSYAESIAESIAEyo4AhbPhLk+bcAYeiOdOnTqJevXqidmzZxsmln25t99+W4p4zDRTNGez4RYJkAAJkAAJkIBeAhTOevmGSp8wYYLo0KFDKN/1jHXr1onevXuL6tWri6FDh4rff//deJXHjh0rFwJ2796d5hnG6fOCJEACJEACJEACFM4cA7EI3H777WLTTTcViDBoyv3bokWLpK01XM5dd911XAgYq8d4MAmQAAmQAAmQgCoCFM6qSJZROfBHjIAjmH0+9dRTBbZ1pC+++EL0799fRgTcd999Bcw00pwQoWn06NFpbgLrTgIkQAIkQAJlTYDCuay7v7jGT5s2TbRq1UoK6KOOOko8+eSTRUcbhFu5559/Xpx88slSMDdv3lzcddddJTHLzMiBxY03nk0CJEACJEACtglQONvugZRfH0L3kUcekaYUCJjSsGFD6f958uTJ4uOPP67SFhrnL1u2TNx3333izDPPlAv//vKXv4i2bduKKVOmFC3EXcJL4exSb7AuJEACJEACJBCfAIVzfGY8IwcBmFaMHDlSdO3aVYbshgBGVD/MSsO0o2fPnnKB4ZFHHimPadOmjbSXxnE1a9aUiyaHDx8uli5dmuMK6c6mcE53/7H2JEACJEACJEDhzDGghQCCp8AmGTPJQ4YMEf369ZMz0TDpOOmkk8S5554rrrjiCjF16lQxd+5csXbtWi31cKlQCmeXeoN1IQESIAESIIH4BCic4zPjGSSQiACFcyJsPIkESIAESIAEnCFA4Wy4KxBMBJHvmMqPAIVz+fU5W0wCJEACJFBaBCicDfdnGiMHGkZUspejcC7ZrmXDSIAESIAEyoQAhbPhjqZwNgzcocvB3/WKFSscqhGrQgIkQAIkQAIkEIcAhXMcWgqOpXBWAJFFkAAJkAAJkAAJkIAFAhTOhqFTOBsGzsuRAAmQAAmQAAmQgCICFM6KQBZaDIVzoaR4HAmQAAmQAAmQAAm4RYDC2XB/UDgbBs7LkQAJkAAJkAAJkIAiAhTOikAWWgyFc6GkeBwJkAAJkAAJkAAJuEWAwtlwf0yYMEGGlg5e9t577xX77LNPztfo0aODp2Rt8/x088vqTG6QAAmQAAmQAAk4SYDC2ZFumTNnjqisrMz5evrpp/PWlOenm1/ezuVOEiABEiABEiABJwhQODvRDawECZAACZAACZAACZCA6wQonF3vIdaPBEiABEiABEiABEjACQIUzk50AytBAiRAAiRAAiRAAiTgOgEKZ9d7iPUjARIgARIgARIgARJwggCFsxPdwEqQAAmQAAmQAAmQAAm4ToDC2fUeYv1IgARIgARIgARIgAScIEDh7EQ3sBIkQAIkQAIkQAIkQAKuE6Bwdr2HWD8SIAESIAESIAESIAEnCFA4O9ENrAQJkAAJkAAJkAAJkIDrBCicXe8h1o8ESIAESIAESIAESMAJAhTOTnQDK0ECJEACJEACJEACJOA6AQpn13uI9SMBEiABEiABEiABEnCCAIWzE93ASpAACZAACZAACZAACbhO4H8tIDFDbryrkwAAAABJRU5ErkJggg==;" vertex="1" parent="1">
          <mxGeometry x="50" y="110" width="718" height="369" as="geometry" />
        </mxCell>
      </root>
    </mxGraphModel>
  </diagram>
</mxfile>
